<svg width="819" height="477" viewBox="0 0 819 477" fill="none" xmlns="http://www.w3.org/2000/svg">
<g filter="url(#filter0_d_1_2)">
<path d="M489.52 238.76C508.778 238.76 524.39 223.148 524.39 203.89C524.39 184.632 508.778 169.02 489.52 169.02C470.262 169.02 454.65 184.632 454.65 203.89C454.65 223.148 470.262 238.76 489.52 238.76Z" fill="#535976"/>
<path d="M487.71 159.53C491.19 174.717 494.143 190.017 496.57 205.43C497.3 210.01 497.95 214.84 496.29 219.17C494.9 222.78 492.07 225.6 489.85 228.76C487.63 231.92 485.95 235.97 487.3 239.59C488.65 243.21 492.59 245.19 496.35 246.21C507.11 249.11 518.58 247 529.29 243.86C534.139 242.612 538.788 240.686 543.1 238.14C547.64 235.26 551.36 231.26 554.78 227.14C570.39 208.21 580.61 185.49 590.23 162.91C584.049 163.473 577.822 162.556 572.065 160.237C566.307 157.917 561.185 154.261 557.12 149.57C553.18 144.94 550.29 138.49 552.51 132.83C546 136.4 538.27 136.64 531.26 139.08C526.913 140.74 522.728 142.799 518.76 145.23C513.973 147.997 509.213 150.817 504.48 153.69C499.07 156.95 494 159.85 487.71 159.53Z" fill="#AE6E79"/>
<path d="M560.64 185.71C554.53 197.6 546.58 209.03 535.23 216.11C523.88 223.19 508.6 225.11 497.23 218.11C491.63 214.69 487.39 209.49 482.5 205.11C477.61 200.73 471.5 196.98 464.93 197.55C457.69 198.18 452.02 203.83 447.17 209.24C439.81 217.46 432.7 226.03 427.49 235.76C417.49 254.46 415.12 276.32 415.56 297.52C416 318.72 419.07 339.81 419.14 361.01C419.24 387.09 414.82 412.96 410.35 438.65C451.45 433.59 492.6 444.65 533.79 448.84C560.15 451.55 586.71 451.49 613.21 451.42C617.87 451.42 622.83 451.3 626.71 448.72C629.082 446.99 630.999 444.712 632.3 442.08C635.96 435.33 637.43 427.63 638.45 420.02C641.04 400.8 641.12 381.34 641.19 361.94C641.37 314.94 641.54 267.77 635.57 221.14C634.1 209.67 632.22 198.14 627.82 187.41C623.42 176.68 616.24 166.81 606.2 161.06C599.75 157.36 584.8 150.92 577.2 154.65C568.67 158.81 564.73 177.75 560.64 185.71Z" fill="#535976"/>
<path d="M563.68 318.43C562.13 289.43 555.82 258.48 569.25 232.74C572.55 226.42 560.71 218.53 564.37 212.41C568.836 204.948 572.223 196.892 574.43 188.48C575.19 185.59 575.8 182.53 575.08 179.63C573.75 174.34 568.52 171.19 564.08 167.97C559.18 164.41 556.66 153.56 555.08 147.69C553.5 141.82 567.65 148.89 573.34 146.8C581.24 143.91 591.28 145.73 599.16 148.66C603.56 150.28 608.34 150.42 613.03 150.54C622.14 150.78 631.28 151.01 640.32 149.89C644.38 149.38 648.45 148.61 652.53 148.84C662.94 149.43 671.99 156.55 678.15 164.97C684.31 173.39 688.23 183.2 693.28 192.32C697.49 199.92 702.51 207.1 706.1 215.01C709.28 222.01 711.29 229.53 713.28 237.01L718.41 256.2C719.307 258.945 719.733 261.823 719.67 264.71C719.41 267.78 718.05 270.64 716.67 273.37C711.452 283.489 705.195 293.037 698 301.86C687.21 315.09 674.11 327.02 667.7 342.86C665.2 349.03 663.81 355.59 662.54 362.13C657.42 388.287 653.78 414.713 651.64 441.28C639.955 435.873 627.707 431.778 615.12 429.07C608.845 427.728 602.503 426.726 596.12 426.07C590.53 425.49 583.32 426.59 578 425.07C569.1 422.54 568.12 407.49 566.77 399.61C564.61 387.06 564.18 374.29 564.1 361.61C564 347.19 564.45 332.8 563.68 318.43Z" fill="#696969"/>
<path d="M368.23 264.2C372.44 288.2 377.08 312.27 386.23 334.82C386 335.04 385.77 335.24 385.54 335.44C384.73 336.13 383.89 336.78 383.01 337.44C380.96 338.88 378.71 340.1 377.01 341.98C376.366 342.699 375.858 343.53 375.51 344.43C375.196 345.133 375.033 345.895 375.033 346.665C375.033 347.435 375.196 348.197 375.51 348.9C370.74 351.01 365.2 350.36 359.85 350.16C355.24 349.99 350.77 350.16 347.07 352.69C341.93 356.23 340.38 363.03 339.55 369.21C339.243 371.463 338.98 373.72 338.76 375.98C338.547 378.08 338.373 380.187 338.24 382.3C337.787 389.291 337.723 396.302 338.05 403.3C338.103 404.58 338.173 405.86 338.26 407.14C321.92 406.75 307.03 398.23 292.94 389.95C289.72 388.06 286.4 386.07 284.31 382.95C282.384 379.886 281.569 376.253 282 372.66C282 372.15 282.09 371.66 282.16 371.14C282.608 368.172 283.376 365.262 284.45 362.46C288.858 350.524 295.356 339.468 303.64 329.81C307.22 325.63 311.25 321.54 312.92 316.29C313.65 314 313.92 311.57 314.66 309.29C317.98 299.41 329.96 294.74 334.06 285.15C335.06 282.86 335.52 280.35 336.76 278.15C337.876 276.322 339.316 274.712 341.01 273.4C341.74 272.79 342.5 272.2 343.25 271.61C350.277 266.103 357.047 260.287 363.56 254.16C364.773 253.02 365.973 251.867 367.16 250.7C367.002 255.226 367.361 259.755 368.23 264.2V264.2Z" fill="#696969"/>
<path d="M469 193.22C467.56 194.74 466 196.17 464.47 197.59L464.06 197.96L462.44 199.46C459.5 201.998 456.955 204.96 454.89 208.25L454.72 208.53C449.62 217.66 451.51 228.9 452.93 239.27C454.691 252.193 455.483 265.229 455.3 278.27C455.04 296.27 452.92 314.15 452.88 332.13C452.88 336.21 452.97 340.28 453.15 344.36C453.44 350.99 453.94 357.61 454.54 364.23C455.19 371.49 455.97 378.74 456.7 385.99C457.28 391.6 457.83 397.2 458.29 402.8C458.52 405.7 458.74 408.59 458.92 411.49C459.13 414.89 459.3 418.3 459.4 421.7C459.47 423.86 459.51 426.01 459.51 428.17C459.51 429.4 459.51 430.62 459.51 431.84C459.51 434.18 459.447 436.513 459.32 438.84C459.187 441.833 458.983 444.833 458.71 447.84C458.4 451.11 457.85 454.68 455.55 456.98C455.41 457.12 455.26 457.25 455.11 457.38L451.87 456.98C429.535 454.306 406.986 453.904 384.57 455.78C385.06 452.4 385.51 449.03 385.95 445.64C386.15 444.04 386.35 442.43 386.54 440.82C386.76 438.98 386.97 437.14 387.17 435.3C387.4 433.3 387.61 431.3 387.81 429.3C388.33 424.147 388.787 418.99 389.18 413.83C389.76 406.303 390.2 398.763 390.5 391.21C390.647 387.603 390.76 383.993 390.84 380.38C390.953 375.9 391.007 371.417 391 366.93C391 362.57 390.963 358.203 390.89 353.83C390.89 352.39 390.83 350.95 390.71 349.52C390.624 348.232 390.447 346.953 390.18 345.69C389.437 342.779 388.433 339.941 387.18 337.21C386.96 336.69 386.75 336.21 386.54 335.66C386.42 335.39 386.31 335.11 386.2 334.84C391.96 329.71 396.06 322.84 400 316.08C406.39 305.19 412.93 293.82 414 281.24C415.07 268.66 408.82 254.53 396.8 250.69C393.53 249.69 390.07 249.41 386.7 248.82C383.52 248.26 376.89 246.99 373.21 244.71C371.21 246.763 369.21 248.78 367.21 250.76C367.331 247.739 368.07 244.775 369.38 242.05L370.8 242.12C370.684 241.8 370.63 241.46 370.64 241.12C370.64 240.05 371.38 238.84 372.96 237.5C377.67 233.5 385.08 232.61 388.05 227.2C389.29 224.95 389.5 222.27 390.5 219.91C393.37 213.18 401.61 210.7 406.57 205.32C411.53 199.94 412.77 192.32 416.78 186.32C419.775 181.938 423.93 178.476 428.78 176.32C429.18 176.13 429.59 175.94 430 175.77C438.3 172.22 448.16 171.41 456.76 171.43C460.1 171.43 468.76 171.53 473 173.22C473.688 173.466 474.317 173.85 474.85 174.35C479.37 179.27 472.34 189.66 469 193.22Z" fill="#696969"/>
<path d="M369.72 241.35C377.445 239.024 385.555 238.257 393.579 239.093C401.603 239.929 409.38 242.352 416.46 246.22C423.66 250.22 430.12 255.8 434.08 263C440.03 273.8 439.77 286.82 439.35 299.15C439.14 305.32 438.87 311.71 436.15 317.25C433 323.66 427.06 328.06 421 331.66C417.204 334.082 413.045 335.881 408.68 336.99C401.96 338.45 394.98 337.21 388.21 335.99C380.85 334.63 372.95 332.99 367.84 327.51C364.84 324.33 363.2 320.2 361.58 316.16C359.253 310.327 356.92 304.5 354.58 298.68C350.53 288.57 349.16 280.16 354.51 270.31C356.94 265.82 359.91 261.62 362.31 257.1C363.51 254.8 367.81 241.94 369.72 241.35Z" fill="#696969"/>
<path d="M790 413.917V443.805C772.499 452.323 753.726 456.673 734.775 456.6H504.687C504.567 456.74 504.439 456.87 504.311 457L501.547 456.6H92.2607C57.921 456.6 26.0981 445.744 0 427.252V381.62L196.841 355H196.995L311.625 366.376L341.289 369.374L356.697 370.904L388.589 374.073L404.995 375.702L428.883 378.081L432.245 378.411L449.461 380.12L472.821 382.369L505.668 385.628L560.423 391.076L598.944 394.904L662.197 401.192L674.226 402.381L675.523 402.511L676.649 402.621L692.535 404.201L709.974 405.94L711.996 406.14L790 413.917Z" fill="#504F60"/>
<path d="M519 413.12L229.86 363.77L218.65 420.46L351.19 436.33L392 441.44L504.26 419.33L519 413.12Z" fill="#9C9CA1"/>
<path d="M369.33 438.6L514.19 411.37C514.915 411.231 515.661 411.255 516.376 411.438C517.09 411.622 517.755 411.962 518.323 412.433C518.891 412.905 519.348 413.496 519.66 414.164C519.972 414.833 520.133 415.562 520.13 416.3V416.3C520.133 417.471 519.726 418.605 518.978 419.506C518.231 420.407 517.191 421.017 516.04 421.23L374.57 447.72L369.33 438.6Z" fill="#9C9CA1"/>
<path d="M432.17 352.97C436.68 352.55 441.25 351.84 445.31 349.84C450.31 347.35 454.2 343.06 458.83 339.9C469.01 332.9 482.63 331.96 494.3 335.98C505.97 340 515.71 348.61 522.53 358.89C527.06 365.74 530.46 374.48 527.26 382.04C526.162 384.351 524.778 386.515 523.14 388.48L514.8 399.38C513.216 401.671 511.309 403.722 509.14 405.47C506.02 407.74 502.14 408.67 498.32 409.23C488.17 410.71 477.84 409.87 467.61 410.55C450.04 411.72 432.88 417.38 415.27 417.19C405.15 417.08 395.16 415.04 385.27 413L341.5 404C333.88 402.44 325.27 400.16 321.68 393.25C320.07 390.14 319.77 386.54 319.58 383.04C319.06 373.4 319.58 362.68 326.26 355.73C332.54 349.21 342.47 347.15 349.97 342.33C359.15 336.42 362.18 338.33 371.86 342.77C390.745 351.322 411.523 354.837 432.17 352.97V352.97Z" fill="#AE6E79"/>
<path opacity="0.05" d="M432.17 352.97C436.68 352.55 441.25 351.84 445.31 349.84C450.31 347.35 454.2 343.06 458.83 339.9C469.01 332.9 482.63 331.96 494.3 335.98C505.97 340 515.71 348.61 522.53 358.89C527.06 365.74 530.46 374.48 527.26 382.04C526.162 384.351 524.778 386.515 523.14 388.48L514.8 399.38C513.216 401.671 511.309 403.722 509.14 405.47C506.02 407.74 502.14 408.67 498.32 409.23C488.17 410.71 477.84 409.87 467.61 410.55C450.04 411.72 432.88 417.38 415.27 417.19C405.15 417.08 395.16 415.04 385.27 413L341.5 404C333.88 402.44 325.27 400.16 321.68 393.25C320.07 390.14 319.77 386.54 319.58 383.04C319.06 373.4 319.58 362.68 326.26 355.73C332.54 349.21 342.47 347.15 349.97 342.33C359.15 336.42 362.18 338.33 371.86 342.77C390.745 351.322 411.523 354.837 432.17 352.97V352.97Z" fill="black"/>
<path d="M607.94 339.26C595.66 344.01 583.31 348.78 570.45 351.61C548.89 356.36 526.33 355.61 504.94 361.04C493.64 363.92 482.41 368.56 470.8 367.62C465.61 367.2 460.6 365.62 455.55 364.42C427.18 357.42 394.93 359.69 371.89 377.69C364.01 383.84 357.56 391.51 351.71 399.69C350.458 401.457 349.612 403.478 349.232 405.61C348.853 407.742 348.948 409.931 349.513 412.022C350.078 414.112 351.097 416.052 352.499 417.702C353.9 419.353 355.649 420.674 357.62 421.57C366.58 425.691 376.178 428.251 386 429.14C399.13 430.3 412.32 428.44 425.38 426.58C444.76 423.83 464.15 421.07 483.48 417.98C490.42 416.87 497.36 415.72 504.34 414.84C554.57 408.49 605.71 416.21 656.07 410.91C661.16 410.37 666.34 409.67 670.97 407.5C682.69 402 688.49 387.5 686.07 374.76C683.65 362.02 674.31 351.43 663.07 344.93C653.65 339.46 643.49 337.25 633 334.93C623.26 332.66 617.32 335.66 607.94 339.26Z" fill="#AE6E79"/>
<path opacity="0.1" d="M715.67 263.1C721.21 270.36 722.39 280.1 721.79 289.19C721.19 298.28 719.03 307.27 718.71 316.4C718.27 328.92 721.29 341.4 720.78 353.88C720.42 362.61 718.35 371.17 715.9 379.55C713.01 389.44 708.83 400.07 699.7 404.82C687.58 411.13 662.16 407.58 649.41 412.52C650.57 405.29 661.69 394.82 662.85 387.59C663.65 382.59 664.46 377.45 663.6 372.44C662.5 366.05 658.75 360.38 654.3 355.66C647.22 348.15 637.98 342.5 627.83 340.66C617.68 338.82 592.83 340.33 584.71 346.74C583.71 340.12 602.31 333.74 608.85 332.31C612.11 331.58 615.85 331.99 618.46 329.92C623.46 326 619.83 318.19 620.07 311.92C620.26 306.92 623.18 302.34 623.77 297.34C624.77 289.34 619.55 281.19 621.6 273.34C622.36 270.44 624.05 267.89 625.22 265.13C628.78 256.68 627.22 247.04 625.32 238.06C624.14 232.42 622.99 226.06 626.13 221.25C629.04 216.76 637.3 232.75 642.59 232.01C660.06 229.56 675.87 216.61 689.98 227.21C697.17 232.61 698.11 238.21 700.98 245.92C703.77 253.26 711 257.02 715.67 263.1Z" fill="black"/>
<path d="M718.67 263.1C724.21 270.36 725.39 280.1 724.79 289.19C724.19 298.28 722.03 307.27 721.71 316.4C721.27 328.92 724.29 341.4 723.78 353.88C723.42 362.61 721.35 371.17 718.9 379.55C716.01 389.44 711.83 400.07 702.7 404.82C690.58 411.13 665.16 407.58 652.41 412.52C653.57 405.29 664.69 394.82 665.85 387.59C666.65 382.59 667.46 377.45 666.6 372.44C665.5 366.05 661.75 360.38 657.3 355.66C650.22 348.15 640.98 342.5 630.83 340.66C620.68 338.82 595.83 340.33 587.71 346.74C586.71 340.12 605.31 333.74 611.85 332.31C615.11 331.58 618.85 331.99 621.46 329.92C626.46 326 622.83 318.19 623.07 311.92C623.26 306.92 626.18 302.34 626.77 297.34C627.77 289.34 622.55 281.19 624.6 273.34C625.36 270.44 627.05 267.89 628.22 265.13C631.78 256.68 630.22 247.04 628.32 238.06C627.14 232.42 625.99 226.06 629.13 221.25C632.04 216.76 637.73 215.06 643.02 214.31C660.732 211.914 678.678 216.544 693.02 227.21C700.21 232.61 701.15 238.21 704.02 245.92C706.77 253.26 714 257.02 718.67 263.1Z" fill="#696969"/>
<path d="M57 215.72L111.37 416.66C112.037 419.122 113.439 421.322 115.388 422.968C117.337 424.613 119.741 425.625 122.28 425.87L367 449.38C368.994 449.572 371.006 449.284 372.866 448.539C374.726 447.794 376.381 446.614 377.691 445.098C379.001 443.582 379.929 441.774 380.397 439.826C380.865 437.878 380.859 435.846 380.38 433.9L320.84 191.52C320.132 188.639 318.425 186.102 316.022 184.361C313.62 182.62 310.678 181.787 307.72 182.01L68.13 199.93C66.2905 200.073 64.5051 200.62 62.9013 201.532C61.2975 202.445 59.9148 203.699 58.8517 205.208C57.7887 206.716 57.0716 208.44 56.7515 210.257C56.4314 212.074 56.5163 213.939 57 215.72V215.72Z" fill="#9C9CA1"/>
<path d="M542.11 254.93C556.966 254.93 569.01 242.73 569.01 227.68C569.01 212.63 556.966 200.43 542.11 200.43C527.254 200.43 515.21 212.63 515.21 227.68C515.21 242.73 527.254 254.93 542.11 254.93Z" fill="#AB9184"/>
<path d="M564.2 177.97C564.2 177.97 569.87 194.83 553.14 201.92L551 205.66L561.48 216C561.48 216 574.4 192.43 573 184.06C573 184.06 571 175.56 564.2 177.97Z" fill="#AB9184"/>
<path d="M545.2 254.93C559.526 254.93 571.14 243.316 571.14 228.99C571.14 214.664 559.526 203.05 545.2 203.05C530.874 203.05 519.26 214.664 519.26 228.99C519.26 243.316 530.874 254.93 545.2 254.93Z" fill="#F5F5EB"/>
<path d="M573.13 187.89L569.01 181.09L563.01 180.24C564.29 157.85 558.48 151.18 558.48 151.18L557.13 151.05L551.25 150.48L540.19 139V135.74C555.73 137.59 564.32 144.97 568.96 153.62C577.16 168.8 573.13 187.89 573.13 187.89Z" fill="#F5F5EB"/>
<path opacity="0.1" d="M557.18 146.93V151.05L551.3 150.48L540.24 139C540.24 139 557.35 142.83 557.18 146.93Z" fill="black" stroke="#696969" stroke-miterlimit="10"/>
<path opacity="0.1" d="M573.13 187.89L569.01 181.09V153.66C577.16 168.8 573.13 187.89 573.13 187.89Z" fill="black" stroke="#696969" stroke-miterlimit="10"/>
<path d="M497.267 239.653C504.168 235.668 503.871 222.233 496.603 209.644C489.335 197.056 477.848 190.081 470.947 194.066C464.045 198.05 464.342 211.486 471.61 224.074C478.878 236.663 490.365 243.638 497.267 239.653Z" fill="#AB9184"/>
<path d="M488 214.66C495.27 227.25 504.19 235.66 497.29 239.66C490.39 243.66 470.29 241.66 463.02 229.06C455.75 216.46 462.35 199.06 469.25 195.06C476.15 191.06 480.72 202.04 488 214.66Z" fill="#F5F5EB"/>
<path opacity="0.1" d="M552.73 123.96C552.73 164.19 525.2 202.96 484.97 202.96C465.649 202.96 447.119 195.285 433.457 181.623C419.795 167.961 412.12 149.431 412.12 130.11C412.12 110.789 419.795 92.2593 433.457 78.5973C447.119 64.9352 465.649 57.26 484.97 57.26C525.2 57.3 552.73 83.72 552.73 123.96Z" fill="black"/>
<path d="M484.97 201C525.204 201 557.82 168.384 557.82 128.15C557.82 87.916 525.204 55.3 484.97 55.3C444.736 55.3 412.12 87.916 412.12 128.15C412.12 168.384 444.736 201 484.97 201Z" fill="#AE6E79"/>
<path d="M478.57 95.87C487.24 99.06 492.37 108.02 500.15 113.01C511.15 120.01 525.47 118.2 538.03 114.74C545.03 112.83 552.35 110.5 559.24 112.62C560.253 113.069 561.371 113.228 562.47 113.08C563.97 112.65 564.71 110.99 565.2 109.51C573.72 84.1101 569.89 55.34 557.03 31.84C553.71 25.78 549.73 19.92 544.25 15.71C539.93 12.4 534.85 10.23 529.73 8.38005C520.373 5.01959 510.696 2.63035 500.85 1.25004C499.111 0.934128 497.335 0.87686 495.58 1.08006C493.17 1.47006 491.01 2.77004 488.86 3.93004C479.652 8.86617 469.44 11.6397 459 12.0401C445 12.5701 429 9.27005 418.21 18.25C405.21 29.02 408.45 50.03 400.02 64.65C394.44 74.32 383.68 81.3401 381.91 92.3501C381.449 95.7152 381.663 99.1386 382.54 102.42C386.66 119.36 403.06 132.48 420.54 132.79C423.224 132.995 425.912 132.444 428.3 131.2C429.864 130.133 431.245 128.819 432.39 127.31C443.84 113.75 456.94 87.91 478.57 95.87Z" fill="#444053"/>
<path opacity="0.1" d="M565.2 102.14C564.71 103.62 563.97 105.28 562.47 105.71C561.371 105.858 560.253 105.699 559.24 105.25C552.35 103.13 544.99 105.46 538.04 107.37C525.47 110.83 511.12 112.68 500.16 105.64C492.37 100.64 487.25 91.64 478.57 88.5C456.94 80.5 443.84 106.38 432.36 119.94C431.215 121.449 429.834 122.762 428.27 123.83C425.882 125.074 423.194 125.625 420.51 125.42C403.09 125.11 386.68 111.99 382.51 95.05C382.28 94.05 382.08 93.05 381.93 92.05C381.93 92.14 381.93 92.22 381.88 92.31C381.419 95.6752 381.633 99.0985 382.51 102.38C386.63 119.32 403.04 132.44 420.51 132.75C423.194 132.955 425.882 132.404 428.27 131.16C429.834 130.092 431.215 128.779 432.36 127.27C443.84 113.71 456.94 87.87 478.57 95.83C487.25 99.02 492.37 107.98 500.16 112.97C511.16 119.97 525.47 118.16 538.04 114.7C545.04 112.79 552.35 110.46 559.24 112.58C560.253 113.029 561.371 113.188 562.47 113.04C563.97 112.61 564.71 110.95 565.2 109.47C568.637 99.0771 570.155 88.146 569.68 77.21C569.386 85.6913 567.877 94.0868 565.2 102.14V102.14Z" fill="black"/>
</g>
<defs>
<filter id="filter0_d_1_2" x="0" y="0" width="819" height="477" filterUnits="userSpaceOnUse" color-interpolation-filters="sRGB">
<feFlood flood-opacity="0" result="BackgroundImageFix"/>
<feColorMatrix in="SourceAlpha" type="matrix" values="0 0 0 0 0 0 0 0 0 0 0 0 0 0 0 0 0 0 127 0" result="hardAlpha"/>
<feOffset dx="20" dy="10"/>
<feGaussianBlur stdDeviation="4.5"/>
<feColorMatrix type="matrix" values="0 0 0 0 0 0 0 0 0 0 0 0 0 0 0 0 0 0 0.25 0"/>
<feBlend mode="normal" in2="BackgroundImageFix" result="effect1_dropShadow_1_2"/>
<feBlend mode="normal" in="SourceGraphic" in2="effect1_dropShadow_1_2" result="shape"/>
</filter>
</defs>
</svg>