<svg xmlns="http://www.w3.org/2000/svg" width="666.667" height="666.667" preserveAspectRatio="xMidYMid meet" version="1.0" viewBox="0 0 500 500"><metadata>Created by potrace 1.11, written by Peter Selinger 2001-2013</metadata><g fill="#000" stroke="none"><path d="M2883 4892 c-3 -8 -13 -10 -25 -6 -15 4 -18 3 -13 -6 5 -8 3 -11 -6 -8 -8 3 -13 11 -11 17 1 6 -2 11 -8 11 -5 0 -10 -7 -10 -15 0 -8 -5 -15 -11 -15 -5 0 -8 4 -5 9 10 16 -59 6 -87 -13 -15 -10 -30 -16 -34 -13 -3 3 -12 0 -19 -8 -8 -7 -23 -11 -35 -8 -14 4 -25 0 -31 -11 -12 -22 -32 -21 -24 2 6 16 5 16 -8 0 -7 -10 -18 -18 -24 -18 -6 0 -13 -6 -15 -12 -3 -8 -6 -6 -6 5 -1 9 -6 17 -12 17 -5 0 -7 -4 -4 -10 3 -6 -1 -7 -9 -4 -9 3 -16 1 -16 -6 0 -6 -4 -8 -10 -5 -5 3 -10 2 -10 -3 0 -5 -9 -12 -20 -15 -11 -3 -20 -1 -20 4 0 16 -26 10 -54 -12 -14 -11 -26 -15 -26 -9 0 6 -12 2 -26 -9 -15 -11 -30 -18 -35 -15 -5 3 -9 0 -9 -7 0 -7 -3 -10 -6 -6 -4 3 -13 -1 -21 -9 -8 -8 -19 -12 -24 -9 -5 4 -9 -1 -9 -9 0 -9 -7 -16 -16 -16 -8 0 -28 -13 -44 -28 -15 -16 -35 -27 -44 -26 -9 1 -16 -4 -16 -12 0 -16 -16 -19 -25 -4 -5 8 -11 7 -21 -1 -10 -8 -11 -15 -5 -19 6 -3 0 -17 -15 -33 -14 -15 -21 -27 -17 -27 4 0 0 -5 -9 -11 -10 -5 -18 -17 -18 -25 0 -9 -5 -12 -11 -8 -7 4 -10 1 -7 -7 3 -8 -10 -30 -29 -49 -18 -19 -33 -45 -33 -57 0 -32 -15 -65 -42 -93 -13 -14 -32 -44 -42 -67 -10 -23 -25 -44 -32 -47 -8 -3 -14 -17 -14 -31 0 -15 -4 -24 -10 -20 -9 6 -15 -8 -11 -29 1 -5 -1 -16 -5 -25 -4 -9 -8 -23 -10 -31 -2 -8 -8 -37 -13 -64 -6 -26 -8 -52 -5 -57 3 -5 2 -9 -3 -9 -9 0 -8 -108 1 -117 3 -3 -2 -12 -11 -18 -14 -10 -15 -16 -5 -27 6 -8 11 -38 11 -67 -1 -36 3 -56 12 -62 8 -5 9 -9 4 -9 -6 0 -11 -20 -11 -45 -1 -25 2 -42 7 -39 5 3 9 2 10 -3 3 -35 8 -61 14 -80 6 -19 4 -23 -16 -23 l-24 0 25 -20 c17 -13 20 -20 10 -20 -12 0 -13 -2 -1 -9 9 -6 10 -11 2 -15 -19 -12 -12 -24 12 -19 18 5 20 3 10 -7 -10 -11 -9 -16 5 -27 16 -12 16 -14 -2 -28 -11 -8 -14 -15 -7 -15 7 0 9 -5 6 -10 -3 -6 1 -13 9 -16 9 -3 13 -10 10 -15 -3 -5 -11 -7 -17 -3 -7 3 -4 -1 6 -9 10 -8 17 -21 16 -29 -4 -29 1 -40 17 -34 9 3 12 2 9 -5 -4 -6 -14 -8 -22 -5 -8 3 -20 3 -26 -1 -7 -5 0 -10 18 -13 19 -3 30 -11 30 -22 0 -9 8 -25 18 -36 14 -15 15 -21 5 -25 -7 -3 2 -6 21 -6 26 -1 31 -4 23 -14 -12 -14 3 -42 46 -87 12 -13 22 -30 22 -37 0 -8 5 -11 10 -8 6 3 10 1 10 -5 0 -7 8 -9 22 -4 20 6 21 5 9 -9 -7 -9 -17 -14 -22 -11 -5 3 -9 1 -9 -5 0 -5 6 -12 13 -15 10 -5 10 -7 0 -12 -17 -8 -16 -24 1 -24 8 0 29 -16 47 -35 20 -21 43 -35 57 -35 13 0 21 -3 19 -7 -3 -5 -8 -53 -11 -108 -4 -55 -9 -113 -11 -130 -2 -16 -7 -57 -10 -90 -9 -84 -15 -126 -21 -154 -3 -13 -7 -45 -10 -70 -2 -25 -10 -49 -17 -53 -7 -4 -9 -8 -5 -8 4 0 -2 -10 -13 -22 -11 -13 -46 -57 -76 -98 -31 -41 -81 -98 -111 -127 l-55 -52 -57 6 c-62 6 -125 -9 -134 -32 -3 -8 -14 -15 -25 -15 -21 0 -61 -44 -61 -66 0 -7 -10 -19 -22 -25 -13 -7 -48 -35 -79 -63 -31 -28 -83 -64 -115 -81 -32 -16 -65 -35 -72 -42 -7 -7 -46 -32 -85 -55 -40 -23 -78 -48 -85 -55 -7 -7 -21 -13 -30 -13 -23 0 -120 -46 -158 -75 -17 -13 -72 -45 -120 -71 -49 -25 -96 -52 -104 -58 -8 -7 -33 -20 -55 -30 -90 -39 -145 -77 -145 -102 0 -7 -30 -43 -66 -81 -141 -145 -245 -271 -317 -387 l-27 -44 0 -256 0 -256 2500 0 2500 0 0 513 0 513 -59 91 c-71 108 -145 196 -277 325 -122 119 -159 148 -299 228 -60 34 -130 75 -155 90 -41 26 -97 42 -283 81 -45 10 -69 10 -112 0 -53 -12 -57 -11 -121 20 -46 23 -81 33 -117 34 -36 1 -59 7 -75 20 -26 23 -148 74 -176 75 -10 0 -31 11 -48 25 -16 14 -36 25 -44 25 -8 0 -14 3 -15 8 -9 141 -9 142 11 162 11 11 20 17 20 14 0 -3 7 1 15 10 8 8 15 19 15 25 0 6 4 11 9 11 6 0 18 27 28 61 10 33 25 68 34 78 9 10 20 26 23 37 4 10 34 48 67 84 67 73 134 168 174 250 15 30 42 80 60 110 41 69 48 108 35 196 -29 189 -25 249 18 265 24 9 25 11 10 20 -20 11 -25 39 -7 39 5 0 8 4 5 9 -3 5 6 16 19 25 14 9 23 21 20 26 -3 5 3 15 12 22 20 14 37 39 55 78 17 37 18 53 6 67 -8 11 -7 12 7 7 13 -5 16 -4 11 4 -4 7 -1 18 6 26 7 7 20 23 28 35 8 11 20 21 28 21 9 0 11 7 7 20 -5 16 -3 19 12 13 17 -7 17 -6 2 18 -14 21 -15 26 -2 38 13 12 14 11 9 -7 -4 -12 -2 -23 6 -28 7 -4 10 -3 5 1 -4 5 0 17 10 27 9 10 12 18 6 18 -11 0 -11 36 0 46 13 13 7 24 -13 24 -13 0 -18 5 -14 15 4 8 2 15 -4 15 -6 0 -8 9 -5 20 3 11 2 28 -3 37 -4 10 -8 22 -8 26 -1 4 -6 11 -12 15 -29 19 -19 122 12 122 8 0 14 7 14 15 0 8 -7 15 -15 15 -17 0 -20 16 -4 26 6 3 9 17 6 29 -3 17 1 25 15 28 11 3 18 0 18 -10 0 -8 5 -11 10 -8 6 4 8 10 5 15 -3 4 0 10 7 12 9 3 8 11 -5 31 -9 14 -17 32 -16 39 0 7 4 4 9 -7 8 -19 9 -19 9 2 1 12 -4 23 -10 25 -8 3 -6 10 5 20 9 9 16 21 16 26 0 6 10 8 23 5 16 -3 18 -2 8 5 -7 5 -11 15 -7 21 4 5 -2 19 -13 30 -30 30 -43 60 -35 84 6 19 5 20 -8 9 -13 -11 -19 -7 -37 23 -13 22 -25 33 -33 29 -8 -5 -9 -2 -5 10 5 12 -1 20 -18 28 -14 6 -25 15 -25 20 0 5 -5 6 -12 2 -8 -5 -9 0 -6 14 4 12 2 22 -3 22 -6 0 -23 14 -39 32 -27 29 -31 31 -56 19 -25 -11 -26 -11 -22 14 5 24 -1 30 -31 26 -8 -2 -10 2 -5 10 5 8 2 11 -8 7 -8 -4 -21 2 -28 12 -8 11 -18 16 -23 13 -6 -3 -7 -1 -3 5 13 21 -5 35 -19 15 -12 -15 -17 -16 -34 -6 -12 8 -21 9 -23 2 -2 -5 -18 3 -36 19 -33 29 -72 41 -51 15 15 -17 -12 -18 -29 -1 -9 9 -17 9 -34 1 -38 -19 -52 -20 -66 -6 -14 14 -54 8 -60 -8 -2 -5 -10 -2 -19 6 -16 17 -33 20 -33 6 0 -5 -9 -11 -20 -14 -11 -3 -20 0 -20 5 0 6 -6 6 -14 -1 -11 -10 -21 -9 -43 2 -15 8 -34 12 -42 9 -8 -3 -11 0 -7 7 4 6 3 11 -2 11 -6 0 -12 -6 -15 -14 -5 -13 -40 -13 -77 1 -29 11 -83 8 -87 -5z m427 -6 c0 -3 -4 -8 -10 -11 -5 -3 -10 -1 -10 4 0 6 5 11 10 11 6 0 10 -2 10 -4z m114 -12 c4 -9 4 -19 1 -22 -3 -3 -5 0 -5 6 0 6 -6 9 -13 6 -8 -3 -14 2 -14 11 0 20 23 19 31 -1z m351 -126 c5 4 5 2 1 -5 -8 -14 -36 -6 -36 9 0 7 5 6 13 -1 8 -6 18 -7 22 -3z m155 -178 c0 -5 -2 -10 -4 -10 -3 0 -8 5 -11 10 -3 6 -1 10 4 10 6 0 11 -4 11 -10z m72 -109 c14 -16 14 -20 2 -25 -8 -3 -14 1 -14 10 0 8 -4 12 -10 9 -5 -3 -10 1 -10 9 0 21 12 20 32 -3z" transform="translate(0.000000,500.000000) scale(0.100000,-0.100000)"/><path d="M3100 4906 c0 -2 7 -6 15 -10 8 -3 15 -1 15 4 0 6 -7 10 -15 10 -8 0 -15 -2 -15 -4z" transform="translate(0.000000,500.000000) scale(0.100000,-0.100000)"/><path d="M3765 4790 c3 -5 8 -10 11 -10 2 0 4 5 4 10 0 6 -5 10 -11 10 -5 0 -7 -4 -4 -10z" transform="translate(0.000000,500.000000) scale(0.100000,-0.100000)"/></g></svg>