<svg xmlns="http://www.w3.org/2000/svg" width="447.254" height="408.657" viewBox="0 0 447.254 408.657">
  <g id="Group_3" data-name="Group 3" transform="translate(0 -219.109)">
    <path id="Path_3" data-name="Path 3" d="M201.15,667.03h30.624l75.465-29.53s53.591-21.874,49.217,19.687-12.031,97.339-12.031,97.339-24.061-10.937-37.186-7.656-4.375-66.716-4.375-66.716S195.682,731.559,185.838,725s-12.031-52.5-12.031-52.5Z" transform="translate(-80.844 -166.791)" fill="#2f2e41"/>
    <path id="Path_4" data-name="Path 4" d="M201.15,667.03h30.624l75.465-29.53s53.591-21.874,49.217,19.687-12.031,97.339-12.031,97.339-24.061-10.937-37.186-7.656-4.375-66.716-4.375-66.716S195.682,731.559,185.838,725s-12.031-52.5-12.031-52.5Z" transform="translate(-80.844 -166.791)" opacity="0.1"/>
    <path id="Path_5" data-name="Path 5" d="M259.169,558.82l37.061,53.248,86.4,72.184s79.84,18.593,68.9,31.717-77.653-13.124-77.653-13.124-99.527-72.184-102.808-77.653S231.7,568.32,231.7,568.32Z" transform="translate(-90.614 -154.483)" fill="#a0616a"/>
    <path id="Path_6" data-name="Path 6" d="M259.169,558.82l37.061,53.248,86.4,72.184s79.84,18.593,68.9,31.717-77.653-13.124-77.653-13.124-99.527-72.184-102.808-77.653S231.7,568.32,231.7,568.32Z" transform="translate(-90.614 -154.483)" opacity="0.1"/>
    <path id="Path_7" data-name="Path 7" d="M230.953,507.092l24.061,47.029s-5.469,22.968-14.218,25.155-45.935-28.436-45.935-28.436Z" transform="translate(-84.397 -145.752)" fill="#d0cde1"/>
    <path id="Path_8" data-name="Path 8" d="M230.953,507.092l24.061,47.029s-5.469,22.968-14.218,25.155-45.935-28.436-45.935-28.436Z" transform="translate(-84.397 -145.752)" opacity="0.1"/>
    <path id="Path_9" data-name="Path 9" d="M584.677,644.616l7.108,29.319a1.83,1.83,0,0,1-.036.99L559.508,775.679a1.831,1.831,0,0,1-3.564-.351l-4.46-39.25a1.831,1.831,0,0,1,.078-.774l29.594-90.823a1.831,1.831,0,0,1,3.52.135Z" transform="translate(-144.583 -168.727)" fill="#2f2e41"/>
    <path id="Path_10" data-name="Path 10" d="M520.532,575.493l6.562,25.156-28.436,91.871L492.1,664.083Z" transform="translate(-83.052 -97.127)" fill="#f2f2f2"/>
    <path id="Path_11" data-name="Path 11" d="M415.873,802.135c1.094,3.281,113.744-1.094,114.838-2.187a23.743,23.743,0,0,0,2.406-4.375c1.028-2.187,1.969-4.375,1.969-4.375l-4.375-35.414-111.558-3.959s-2.789,30.011-3.358,43.748A32.847,32.847,0,0,0,415.873,802.135Z" transform="translate(-121.668 -187.056)" fill="#2f2e41"/>
    <path id="Path_12" data-name="Path 12" d="M465.442,689.965l2.187,30.623H418.413V689.965Z" transform="translate(-70.616 -116.447)" opacity="0.1"/>
    <path id="Path_13" data-name="Path 13" d="M392.9,701.794l.293-.058-1.387,13.183H364.467V701.794Z" transform="translate(-61.512 -118.434)" opacity="0.1"/>
    <path id="Path_14" data-name="Path 14" d="M415.873,811.018c1.094,3.281,113.744-1.094,114.838-2.187a23.747,23.747,0,0,0,2.406-4.375H415.8A32.828,32.828,0,0,0,415.873,811.018Z" transform="translate(-121.668 -195.939)" opacity="0.1"/>
    <circle id="Ellipse_1" data-name="Ellipse 1" cx="49.217" cy="49.217" r="49.217" transform="translate(113.745 247.595)" fill="#a0616a"/>
    <path id="Path_15" data-name="Path 15" d="M238.859,473.486s-16.406,28.436-19.687,43.748-49.217-30.624-49.217-30.624l-6.015-15.859s43.2-20.233,39.92-36.639S238.859,473.486,238.859,473.486Z" transform="translate(-79.178 -132.926)" fill="#a0616a"/>
    <path id="Path_16" data-name="Path 16" d="M253.937,584.722l44.842,59.06,107.183,79.84s77.653,16.406,60.153,28.436-67.809-10.937-67.809-10.937-108.277-57.966-131.244-82.028-65.622-64.528-65.622-64.528Z" transform="translate(-85.507 -158.854)" fill="#a0616a"/>
    <path id="Path_17" data-name="Path 17" d="M172.465,693.863l13.124,20.78L263.917,690c17.186-5.407,36.032-3.417,51.276,6.186,13.671,8.613,22.421,22.284,2.734,42.518-39.373,40.467-65.622,18.593-65.622,18.593S119.967,819.639,98.094,789.015s-22.968-45.935-22.968-45.935S159.341,690.581,172.465,693.863Z" transform="translate(-64.189 -176.124)" fill="#2f2e41"/>
    <path id="Path_18" data-name="Path 18" d="M366.276,780.089s35,22.968-6.562,33.9-72.184-4.375-72.184-4.375-36.092,0-36.092-18.593,12.031-20.78,12.031-20.78l37.186,5.469S345.5,763.683,366.276,780.089Z" transform="translate(-93.945 -190.165)" fill="#d0cde1"/>
    <path id="Path_19" data-name="Path 19" d="M285.172,402.461c3.35,1.493,6.672,3.261,10.313,3.694s7.789-.838,9.512-4.076a12.792,12.792,0,0,0,1.081-5.786c.132-6.006-.3-12.5-4.108-17.146-2.422-2.958-5.958-4.823-8.465-7.709a36.423,36.423,0,0,1-4.279-6.992c-4.876-9.158-14.833-20.221-24.867-22.861-4.19-1.1-12-.061-16.335,0,0,0-7.579-1.47-9.528-3.2s-7.91-1.162-7.91-1.162c-6.35.352-9.971,8.116-13.885,9.3-3.2.966-9.108-1.217-13.367,0-5.863,1.674-10.076,7.073-13.368,11.043-3.522,4.247-2.513,8.282-3.2,13.87-.054.5-3,4.573-3.407,5.31-.188.35-5.255,3.462-5.6,4.068-4.352,7.634-5.256,10.254-4.112,18.622-.422,4.877,6.709,7.961,7.1,10.777.388,3.325,1.52,3.2,2.61,5.138,4.738,9.307,7.552,20.932,2.216,29.91,9.27-3.787,18.442-8.751,24.556-16.681,2.736-3.547,4.881-7.7,8.526-10.3s9.586-2.829,11.925.992a10.688,10.688,0,0,1,1.206,5.006c.171,2.868.166,5.846,1.382,8.448s4.112,4.7,6.877,3.924c4.762-1.341,4.306-8.65,7.974-11.97,2.785-2.521,7.083-2.039,10.661-3.184,4.169-1.334,7.3-4.945,9.08-8.943,1.355-3.039,1.335-10.991,3.9-12.637C274.881,397.851,282.192,401.132,285.172,402.461Z" transform="translate(-81.836 -118.03)" fill="#2f2e41"/>
    <path id="Path_20" data-name="Path 20" d="M142.823,472.473a12.98,12.98,0,0,1,6.756.017c7.021,1.885,22.759,6.875,26.134,14.467,4.375,9.843,19.687,25.155,19.687,25.155s20.78,20.78,16.406,35-20.78,30.624-20.78,30.624,4.375,67.809-17.5,85.309S142.9,668.512,142.9,684.917s-67.81,67.809-80.934,36.092c0,0,6.562-59.06,4.375-79.84C64.187,620.688,67.343,492.907,142.823,472.473Z" transform="translate(-61.968 -139.836)" fill="#d0cde1"/>
    <path id="Path_21" data-name="Path 21" d="M191.073,505.194s66.716,49.216,54.685,70c0,0-40.467,19.687-49.217,18.593s-42.654-39.373-51.4-42.654S132.013,488.788,191.073,505.194Z" transform="translate(-75.141 -144.947)" fill="#d0cde1"/>
  </g>
</svg>
