<?xml version="1.0" standalone="no"?>
<!DOCTYPE svg PUBLIC "-//W3C//DTD SVG 20010904//EN"
 "http://www.w3.org/TR/2001/REC-SVG-20010904/DTD/svg10.dtd">
<svg version="1.0" xmlns="http://www.w3.org/2000/svg"
 width="800.000000pt" height="800.000000pt" viewBox="0 0 800.000000 800.000000"
 preserveAspectRatio="xMidYMid meet">
<metadata>
Created by potrace 1.11, written by Peter Selinger 2001-2013
</metadata>
<g transform="translate(0.000000,800.000000) scale(0.100000,-0.100000)"
fill="#000000" stroke="none">
<path d="M3897 7124 c-1 -2 -38 -5 -82 -8 -187 -11 -349 -53 -705 -181 -110
-39 -314 -135 -453 -213 -45 -25 -104 -57 -131 -71 -116 -61 -145 -78 -187
-107 -24 -18 -61 -39 -82 -47 -20 -9 -42 -21 -49 -27 -15 -12 -167 -104 -218
-131 -19 -11 -44 -19 -56 -19 -42 0 -118 -41 -160 -87 -38 -41 -41 -48 -32
-77 5 -17 11 -38 13 -48 5 -23 61 -98 86 -116 11 -8 47 -16 79 -17 33 -2 69
-9 81 -15 45 -25 84 -22 124 10 49 39 79 46 129 30 23 -7 57 -12 76 -12 163 4
229 9 241 18 8 6 39 25 69 41 97 53 129 77 130 98 0 23 39 86 41 68 2 -22 4
-27 18 -51 11 -22 14 -22 30 -8 9 9 27 17 39 19 28 4 46 22 38 36 -4 6 -17 4
-36 -7 -27 -15 -32 -15 -40 -2 -7 12 -4 16 14 18 14 2 32 14 40 28 17 25 54
32 73 13 8 -8 13 -6 17 7 4 11 25 33 47 49 22 17 49 38 60 48 10 9 24 17 30
17 5 0 17 17 26 37 14 35 38 62 56 63 5 0 -1 -12 -12 -26 -24 -31 -26 -44 -8
-44 20 0 60 46 72 83 13 41 68 57 115 34 17 -9 28 -12 25 -8 -8 14 27 40 97
75 41 20 71 29 76 24 6 -6 20 0 36 15 15 14 41 33 59 42 18 9 43 23 57 30 14
7 39 15 55 18 17 3 56 12 87 22 32 9 62 14 67 11 5 -4 12 -2 15 3 7 11 197 15
376 8 87 -3 217 -24 235 -38 6 -4 33 -10 60 -14 26 -3 53 -9 59 -14 6 -5 31
-14 56 -20 51 -13 191 -79 203 -95 10 -13 1 -89 -12 -113 -13 -22 -51 -110
-51 -116 0 -11 -154 -263 -169 -277 -9 -8 -46 -55 -81 -104 -70 -98 -92 -124
-191 -230 -36 -39 -81 -89 -100 -111 -48 -56 -415 -419 -470 -466 -25 -21 -57
-54 -70 -73 -12 -19 -35 -41 -50 -50 -14 -8 -62 -50 -105 -91 -44 -42 -99 -93
-123 -113 -24 -20 -53 -46 -65 -57 -102 -92 -246 -216 -284 -243 -26 -19 -89
-70 -139 -115 -130 -114 -124 -113 -118 -25 2 40 14 98 26 128 12 30 23 73 24
95 3 36 8 78 20 155 2 14 15 47 29 75 16 32 21 55 16 65 -5 10 -1 36 11 70 11
30 21 62 23 70 1 9 5 20 9 27 4 6 4 18 1 27 -3 8 1 37 9 63 35 112 44 234 25
340 -5 29 -112 123 -141 124 -63 2 -125 7 -152 13 -44 9 -104 -16 -143 -60
-47 -52 -88 -144 -156 -349 -61 -181 -256 -670 -305 -765 -10 -19 -36 -75 -57
-125 -37 -88 -54 -115 -71 -115 -5 0 -16 -8 -25 -17 -28 -30 -46 -42 -52 -36
-3 4 -6 1 -6 -5 0 -7 -8 -12 -18 -12 -10 0 -23 -5 -30 -12 -8 -8 -12 -9 -12
-1 0 15 -40 5 -64 -16 -10 -9 -21 -15 -25 -14 -12 5 -41 -8 -41 -18 0 -6 -4
-8 -9 -5 -4 3 -17 -10 -27 -29 -10 -19 -24 -35 -31 -35 -7 0 -13 -5 -13 -11 0
-6 -6 -17 -14 -25 -16 -16 -16 -16 9 -101 9 -35 22 -63 26 -63 5 0 9 -5 9 -10
0 -18 45 -80 58 -80 6 0 12 -4 12 -10 0 -5 7 -10 15 -10 8 0 15 -4 15 -9 0
-11 33 -9 41 3 4 5 13 5 20 0 8 -4 29 -9 48 -11 19 -1 42 -10 52 -19 10 -9 23
-13 28 -9 6 3 11 0 11 -7 0 -10 2 -10 9 1 7 10 10 10 13 1 2 -8 12 -10 26 -6
12 4 20 12 17 17 -4 5 -1 9 5 9 6 0 23 11 38 25 24 22 36 27 58 24 4 0 10 4
14 11 5 8 23 5 66 -10 79 -28 85 -29 114 -17 31 12 200 16 200 5 0 -9 51 21
62 37 4 5 8 6 8 2 0 -5 12 1 27 13 14 11 29 16 32 11 3 -5 26 9 50 30 25 22
37 39 28 39 -17 0 -31 27 -17 35 4 3 15 2 24 -1 12 -4 21 6 36 40 10 25 26 46
34 46 8 0 36 16 61 36 29 22 55 34 66 31 10 -3 20 0 23 7 2 6 5 3 5 -7 1 -10
6 -15 11 -12 6 4 8 15 5 26 -4 13 -2 19 8 19 8 0 20 7 27 15 7 8 20 15 30 15
18 0 60 32 60 46 1 5 17 27 37 49 23 26 37 35 40 27 4 -10 9 -9 24 4 10 9 19
23 19 30 0 7 30 31 68 53 37 21 88 62 114 91 39 42 52 51 71 46 22 -5 62 14
79 38 5 7 8 6 8 -2 0 -7 -28 -40 -62 -73 -58 -55 -61 -60 -41 -65 19 -5 22
-11 16 -33 -6 -24 -5 -25 13 -11 27 21 33 31 27 47 -8 21 27 53 72 64 40 10
43 14 47 67 1 7 23 24 49 38 26 13 53 32 58 41 8 14 13 15 19 6 6 -10 12 -8
24 5 9 9 34 30 57 46 23 17 41 36 41 43 0 8 8 16 18 20 32 11 102 58 102 69 0
16 54 64 72 64 24 0 30 16 13 30 -13 10 -9 17 27 43 24 17 53 40 66 52 12 11
37 29 55 40 28 17 27 13 -15 -30 -27 -26 -48 -55 -48 -63 0 -12 5 -11 23 5 20
19 79 53 91 53 3 0 3 -7 0 -15 -7 -17 11 -21 21 -5 9 15 37 12 30 -2 -3 -7 2
-3 11 10 20 27 123 96 131 88 3 -3 20 6 37 19 30 23 32 23 43 6 10 -16 5 -21
-38 -41 -27 -13 -49 -28 -49 -33 0 -11 -41 -46 -56 -47 -6 0 -19 -9 -29 -20
-22 -24 -38 -25 -60 -3 -16 16 -19 15 -45 -17 -15 -19 -37 -34 -51 -35 -17 -1
-30 -13 -44 -41 -22 -42 -34 -53 -80 -70 -20 -7 -29 -18 -28 -30 2 -22 -34
-49 -62 -46 -13 2 -34 -11 -55 -33 -19 -20 -27 -33 -17 -30 18 8 24 -9 7 -20
-5 -3 -10 -11 -10 -17 0 -6 7 -5 18 4 9 9 27 19 40 23 32 9 156 101 207 153
23 23 45 42 49 42 14 0 5 -37 -14 -53 -11 -9 -34 -39 -50 -66 -29 -46 -60 -73
-60 -51 0 6 -4 10 -10 10 -5 0 -10 -8 -10 -17 0 -10 -7 -30 -14 -45 -18 -34
-14 -35 28 -3 18 14 35 22 38 19 8 -7 83 31 127 65 l34 25 -8 -24 c-7 -23 -7
-24 11 -10 27 20 74 70 67 70 -4 0 -17 -10 -30 -22 -42 -39 -33 -13 12 35 24
26 42 54 39 61 -3 8 14 29 40 51 25 21 46 44 46 52 0 8 5 11 12 7 6 -4 16 -1
22 7 6 8 28 25 48 37 20 13 40 32 43 42 6 18 81 80 97 80 4 0 8 -7 8 -16 0
-11 5 -14 16 -10 9 3 20 6 25 6 5 0 9 7 9 15 0 8 -7 15 -16 15 -8 0 -13 4 -9
9 3 6 -4 19 -17 30 -25 24 -16 41 12 23 11 -6 22 -8 25 -3 7 13 -5 42 -16 35
-5 -3 -9 -2 -9 3 0 9 48 42 92 64 15 8 27 17 27 22 1 4 1 16 1 26 0 30 25 49
84 61 39 8 53 15 50 25 -3 7 3 16 15 20 12 3 27 13 36 21 16 16 10 44 -8 40
-7 -1 -9 -1 -4 2 4 2 14 19 22 39 8 19 34 54 58 77 25 23 50 59 56 79 7 21 16
35 20 33 10 -7 25 6 39 34 14 28 54 87 74 110 24 28 68 108 68 126 0 9 9 32
21 51 12 18 18 40 15 49 -3 8 1 17 9 20 19 8 19 28 1 43 -13 11 -12 17 6 47
11 19 26 34 32 34 15 0 15 -5 19 164 2 104 0 142 -10 152 -7 7 -13 24 -13 39
0 34 -87 157 -153 215 -29 26 -74 59 -102 75 -27 16 -57 34 -65 40 -15 11
-139 50 -190 59 -14 2 -77 16 -140 31 -63 15 -122 28 -130 30 -8 2 -73 17
-145 35 -348 84 -338 82 -553 84 -106 1 -193 1 -195 0z m1293 -1515 c-14 -10
-32 -26 -41 -34 -18 -18 -39 -20 -39 -4 0 23 44 56 74 57 l31 1 -25 -20z
m-221 -177 c-19 -21 -44 -50 -56 -65 -22 -26 -81 -57 -109 -57 -8 0 -14 6 -14
14 0 12 19 24 50 31 36 9 60 31 60 56 0 24 5 29 35 35 19 3 38 10 41 15 3 5
10 9 16 9 6 0 -5 -17 -23 -38z m-130 -168 c3 -3 -21 -30 -54 -59 -33 -30 -75
-69 -92 -86 -28 -26 -34 -28 -39 -14 -4 9 3 33 14 54 12 21 19 41 16 44 -3 3
-3 11 1 17 6 9 10 9 16 -1 6 -11 16 -5 40 24 28 34 36 38 62 33 17 -3 33 -9
36 -12z m-335 -8 c-6 -16 -34 -30 -34 -18 0 10 22 32 32 32 4 0 5 -6 2 -14z
m127 -109 c-13 -13 -26 -3 -16 12 3 6 11 8 17 5 6 -4 6 -10 -1 -17z m194 -37
c0 -8 -8 -16 -17 -18 -13 -2 -18 3 -18 18 0 15 5 20 18 18 9 -2 17 -10 17 -18z
m-501 -70 c-8 -8 -25 -15 -39 -15 -28 -2 -135 -92 -135 -116 0 -17 -36 -59
-51 -59 -6 0 -9 -10 -7 -22 3 -20 -1 -23 -27 -20 -23 2 -26 0 -15 -7 23 -16
-55 -93 -86 -85 -16 4 -28 -1 -41 -17 -10 -13 -30 -35 -45 -50 -16 -15 -28
-31 -28 -36 0 -15 -55 -39 -98 -42 -40 -2 -43 -1 -34 16 14 24 69 56 77 43 3
-5 19 5 35 23 33 37 31 51 -4 18 -23 -21 -24 -21 -28 -3 -4 13 4 28 21 43 15
13 33 33 41 44 8 11 35 27 60 35 35 12 46 21 48 39 2 13 28 47 58 76 30 28 54
56 54 63 0 6 12 19 28 29 15 9 44 30 65 46 27 21 37 25 37 14 0 -9 -5 -17 -12
-19 -7 -3 -9 -11 -4 -24 8 -19 8 -19 19 0 7 11 23 30 37 43 14 13 31 30 39 38
13 12 17 11 32 -13 14 -23 15 -29 3 -42z m256 55 c0 -2 -10 -10 -22 -16 -21
-11 -22 -11 -9 4 13 16 31 23 31 12z m-135 -116 c-4 -5 -13 -9 -22 -9 -13 0
-13 3 -3 15 13 15 35 11 25 -6z m-50 -119 c3 -5 1 -10 -4 -10 -6 0 -11 5 -11
10 0 6 2 10 4 10 3 0 8 -4 11 -10z m-835 -126 c0 -9 -64 -64 -75 -64 -5 0 8
16 29 35 40 36 46 39 46 29z m550 -94 c-24 -15 -36 -11 -14 4 10 8 21 12 24
10 2 -3 -2 -9 -10 -14z m-410 -73 c0 -13 -41 -47 -56 -47 -17 0 -16 1 2 18 11
11 26 22 34 25 20 7 20 7 20 4z m-560 -187 c-89 -82 -140 -117 -140 -95 0 8 5
15 11 15 5 0 7 4 4 10 -3 5 0 8 7 5 7 -3 50 27 96 65 46 39 86 70 90 70 4 0
-27 -32 -68 -70z m-194 -286 c-3 -9 -6 -18 -6 -20 0 -3 -4 -3 -10 1 -11 7 -2
35 12 35 6 0 7 -7 4 -16z m-26 -50 c0 -8 -6 -14 -14 -14 -8 0 -21 -6 -28 -13
-11 -12 -58 -30 -58 -23 0 2 13 17 29 33 41 44 71 51 71 17z"/>
<path d="M4090 4933 c-26 -10 -39 -24 -34 -38 6 -15 34 -9 34 7 0 6 8 17 18
24 17 14 9 17 -18 7z"/>
<path d="M3904 4739 c-19 -22 -19 -22 4 -10 12 6 22 16 22 21 0 15 -5 12 -26
-11z"/>
<path d="M3977 4743 c-12 -12 -7 -22 8 -17 8 4 15 10 15 15 0 11 -14 12 -23 2z"/>
<path d="M5441 5801 c-16 -14 -20 -24 -14 -35 7 -13 12 -9 25 19 18 41 18 41
-11 16z"/>
<path d="M6338 5703 c0 -5 -1 -19 -2 -33 -1 -22 -6 -25 -40 -27 -37 -2 -70
-28 -60 -45 3 -5 0 -8 -6 -8 -7 0 -8 -6 -2 -17 7 -12 5 -21 -9 -32 -16 -13
-20 -30 -21 -96 0 -44 2 -116 6 -160 10 -112 11 -127 19 -150 3 -11 8 -36 11
-55 3 -19 10 -50 15 -68 5 -18 10 -36 10 -40 1 -12 13 -95 18 -117 2 -11 6
-40 8 -65 3 -25 8 -56 11 -70 13 -59 12 -122 -3 -127 -15 -6 -64 15 -60 26 2
8 -26 49 -33 47 -3 0 -22 17 -42 39 -42 46 -146 108 -129 77 5 -10 17 -24 25
-32 18 -14 21 -40 6 -40 -10 0 -11 3 -14 32 0 7 -8 13 -16 14 -8 1 -22 2 -30
2 -9 1 -21 16 -27 32 -8 22 -18 30 -35 30 -13 0 -36 11 -51 25 -15 14 -33 25
-40 23 -6 -2 -28 8 -47 22 -52 36 -65 60 -32 60 9 1 -3 12 -28 25 -32 16 -49
20 -57 13 -7 -6 -11 -14 -8 -18 3 -5 1 -11 -5 -15 -5 -3 -10 -1 -10 4 0 19
-18 12 -53 -19 -19 -16 -37 -27 -41 -23 -3 3 -6 2 -6 -4 0 -6 -18 -9 -40 -8
-36 2 -43 -1 -55 -25 -8 -15 -21 -30 -29 -33 -20 -8 -47 -65 -32 -70 8 -3 8
-10 -1 -26 -20 -33 -15 -57 18 -82 17 -13 37 -30 45 -37 8 -7 14 -10 14 -5 0
4 7 -1 15 -11 8 -11 15 -14 15 -8 0 17 17 15 38 -5 21 -21 70 -54 75 -51 2 2
11 -5 21 -14 20 -21 41 -24 30 -5 -4 6 2 3 13 -8 11 -11 19 -23 16 -27 -2 -4
3 -5 11 -2 11 4 19 -2 25 -19 8 -19 16 -25 36 -23 14 2 28 -1 32 -7 3 -6 1 -7
-5 -3 -7 4 -12 1 -12 -9 0 -9 -6 -22 -12 -30 -7 -7 -21 -23 -30 -36 -83 -117
-80 -113 -91 -93 -6 10 -13 21 -16 24 -3 3 -11 14 -17 25 -63 115 -99 174
-116 185 -4 3 -11 15 -15 27 -14 35 -211 253 -230 253 -18 1 -95 78 -89 89 4
6 12 9 17 5 6 -3 7 4 3 20 -5 22 -3 26 17 27 13 0 18 3 12 6 -18 7 -16 23 2
23 9 0 12 6 9 15 -4 8 -1 15 5 15 20 0 26 -5 23 -17 -2 -7 2 -13 7 -13 5 0 8
9 6 19 -3 18 19 37 38 32 5 -1 6 3 2 9 -3 5 -1 10 5 10 6 0 8 5 4 12 -5 7 -3
8 5 3 28 -17 99 92 88 135 -4 14 1 25 14 33 10 6 19 20 19 31 0 26 28 56 46
49 8 -3 12 -9 9 -13 -3 -4 2 -10 10 -14 10 -3 20 5 30 24 8 16 26 40 40 54 30
30 31 40 6 65 -19 19 -58 19 -71 1 -3 -4 -21 -15 -40 -25 -19 -10 -59 -33 -88
-51 -28 -19 -55 -33 -58 -33 -4 0 -10 -5 -15 -12 -4 -7 -15 -14 -25 -15 -46
-7 -64 -16 -76 -38 -7 -13 -36 -42 -64 -64 -27 -22 -88 -76 -134 -121 -46 -44
-86 -81 -89 -81 -4 0 -46 -38 -94 -84 -48 -46 -107 -96 -132 -112 -25 -15 -45
-33 -45 -38 -1 -6 -27 -31 -58 -56 -31 -25 -61 -51 -65 -58 -5 -7 -12 -10 -16
-8 -4 3 -40 -27 -78 -67 -39 -40 -122 -122 -186 -184 -64 -61 -113 -114 -110
-117 4 -3 2 -6 -4 -6 -6 0 -37 -28 -69 -62 -33 -34 -76 -78 -98 -98 -21 -19
-80 -77 -131 -127 -51 -51 -98 -93 -104 -93 -6 0 -11 -4 -11 -9 0 -8 -61 -72
-328 -346 -91 -94 -234 -267 -245 -297 -4 -10 -11 -18 -17 -18 -6 0 -8 -4 -5
-10 3 -5 1 -10 -4 -10 -6 0 -11 -6 -11 -13 0 -7 -9 -23 -21 -36 -25 -27 -32
-82 -14 -108 10 -14 24 -19 57 -18 50 2 128 15 143 23 5 4 23 7 38 8 16 2 46
10 68 18 21 9 46 13 54 10 10 -4 24 2 36 15 11 12 24 19 29 16 6 -3 7 1 4 9
-4 11 0 16 12 16 20 1 74 43 74 58 0 6 7 12 15 16 8 3 12 12 9 21 -4 9 0 15 9
15 18 0 32 34 21 52 -5 8 -2 9 9 5 11 -4 14 -2 10 9 -3 8 1 14 11 14 15 0 20
11 17 37 -1 7 5 10 13 7 8 -3 17 0 21 5 3 6 10 9 15 6 4 -3 14 8 22 25 7 17
18 28 25 25 7 -2 13 1 13 8 0 7 23 34 51 60 32 29 48 51 43 59 -4 7 -4 10 1 6
5 -5 14 1 22 12 8 11 22 20 32 20 10 0 34 6 53 14 19 8 39 12 44 8 6 -4 19
-29 29 -57 9 -27 26 -70 37 -95 11 -25 21 -49 22 -55 1 -5 7 -19 13 -30 9 -17
16 -39 29 -90 1 -5 14 -44 29 -85 14 -41 33 -100 41 -130 17 -66 57 -183 64
-190 14 -14 33 -57 37 -84 3 -17 18 -69 33 -115 16 -47 27 -88 24 -92 -2 -4 0
-10 6 -14 5 -3 10 -16 10 -29 0 -12 4 -26 9 -31 11 -12 60 -174 67 -225 3 -19
8 -42 11 -50 8 -21 13 -78 18 -210 2 -63 7 -144 9 -180 9 -124 8 -266 -4 -345
-15 -104 -19 -131 -25 -180 -6 -51 -13 -90 -15 -90 -1 0 -2 -18 -4 -40 -5 -87
-47 -162 -73 -129 -7 10 -13 12 -18 4 -3 -5 -10 -8 -15 -5 -5 3 -11 1 -15 -4
-3 -6 -12 -8 -20 -5 -25 10 -40 -7 -20 -23 28 -20 12 -16 -33 8 -25 14 -38 27
-35 35 8 20 -4 17 -28 -7 -16 -16 -23 -18 -29 -9 -4 7 -15 10 -24 7 -9 -4 -21
1 -28 11 -7 9 -19 17 -25 18 -35 3 -38 4 -23 14 10 6 11 10 3 10 -7 0 -13 7
-13 17 0 9 -3 14 -6 10 -6 -6 -61 54 -56 61 6 6 -71 71 -79 67 -4 -3 -13 3
-20 12 -10 12 -10 14 -1 9 6 -4 12 -2 12 3 0 6 -6 11 -12 12 -7 1 -22 2 -33 3
-13 0 -20 8 -20 21 0 11 -8 26 -18 34 -10 7 -16 19 -13 27 3 8 -1 14 -10 14
-8 0 -12 4 -9 10 3 5 -3 22 -14 37 -11 16 -23 42 -26 58 -3 17 -7 36 -9 42 -1
7 -12 23 -24 35 -14 16 -18 28 -12 37 9 15 -18 83 -30 76 -4 -2 -6 16 -5 40 1
25 -2 45 -6 45 -4 0 -11 20 -15 45 -3 25 -10 45 -14 45 -5 0 -7 11 -4 25 3 17
0 24 -8 23 -17 -4 -18 135 -1 179 10 26 10 33 -3 43 -8 8 -12 21 -9 31 4 11 2
19 -5 19 -6 0 -9 -4 -6 -9 3 -5 -1 -12 -10 -15 -11 -4 -14 -1 -12 12 2 9 18
22 35 27 40 13 57 29 22 20 -33 -8 -47 9 -53 68 -5 58 10 83 38 62 13 -10 15
-15 6 -15 -7 0 -11 -3 -7 -6 3 -3 11 -3 17 1 8 5 8 11 -1 21 -7 8 -13 27 -15
42 -1 15 -3 27 -4 27 -1 0 -3 9 -5 19 -5 24 -27 39 -37 23 -12 -20 -30 7 -33
50 -1 22 -8 49 -14 62 -7 12 -14 31 -16 41 -3 17 -54 100 -61 100 -2 0 -1 -8
2 -17 5 -15 4 -16 -5 -3 -6 9 -6 19 -1 24 5 5 -3 20 -19 35 -38 35 -51 63 -47
99 3 17 0 49 -6 71 l-10 41 -24 -27 c-12 -15 -23 -29 -22 -32 0 -3 0 -8 -2
-11 -5 -14 -11 -73 -15 -140 -4 -78 -7 -98 -16 -115 -6 -9 -11 -145 -11 -255
0 -50 10 -200 16 -242 2 -16 1 -30 -4 -33 -5 -3 -4 -21 1 -40 6 -20 12 -52 15
-73 5 -40 7 -51 17 -97 3 -16 9 -55 12 -86 3 -31 10 -71 15 -88 5 -17 9 -32 9
-34 -1 -3 7 -41 22 -112 7 -33 13 -62 13 -65 3 -19 47 -130 81 -202 14 -32 26
-61 26 -65 0 -4 6 -15 13 -23 6 -8 18 -28 26 -45 8 -16 17 -32 20 -35 10 -10
50 -69 50 -75 0 -15 186 -205 201 -205 4 0 14 -6 21 -12 34 -33 89 -66 148
-91 36 -15 67 -27 70 -27 3 1 43 -13 90 -29 94 -34 128 -38 136 -16 5 12 67
28 114 29 8 1 29 15 46 33 17 18 34 30 37 26 4 -3 9 2 13 11 3 9 11 16 16 16
6 0 16 8 23 17 11 15 15 16 30 3 16 -13 21 -11 54 26 20 22 53 51 73 65 21 13
38 26 38 30 0 3 19 26 43 51 97 104 111 126 69 110 -15 -5 -15 -4 -3 11 7 9
11 17 8 17 -3 0 1 23 9 51 8 27 14 60 12 72 -2 18 2 22 22 20 14 -1 19 1 13 3
-22 9 -15 34 10 33 12 0 17 -3 10 -5 -7 -3 -9 -12 -6 -20 4 -11 8 -12 13 -4 6
9 12 9 27 -1 28 -17 50 -6 48 23 -5 53 -18 88 -32 88 -12 0 -14 7 -8 28 4 15
8 42 8 59 0 26 3 30 14 22 10 -9 13 -8 13 5 0 9 -7 16 -15 16 -31 0 -48 70
-23 95 7 7 8 3 3 -12 -4 -17 -2 -23 8 -23 9 0 18 6 20 13 4 9 6 9 6 -1 1 -8 6
-10 14 -6 7 5 6 0 -3 -11 -9 -11 -10 -16 -2 -11 7 4 12 2 12 -6 1 -7 10 4 21
25 23 44 18 62 -13 46 -16 -9 -19 -8 -13 2 6 9 3 10 -10 5 -15 -5 -16 -4 -6 8
7 8 18 13 25 10 7 -3 17 6 24 20 6 13 18 23 28 23 15 -2 17 9 19 74 1 41 4 80
8 86 4 6 4 13 0 17 -9 9 -25 8 -19 -2 6 -10 -36 -8 -52 2 -12 7 -16 1 -13 -18
1 -5 -5 -4 -13 4 -17 13 -21 21 -8 18 4 -1 17 3 29 10 12 7 24 8 27 3 3 -5 15
-7 26 -4 17 5 20 14 20 59 0 29 -5 56 -10 59 -6 4 -8 15 -5 25 9 28 -32 37
-57 13 -15 -16 -16 -20 -4 -20 8 0 13 4 10 9 -3 4 0 8 5 8 6 0 14 0 18 0 4 1
12 -20 19 -45 10 -42 10 -46 -6 -42 -9 2 -25 0 -34 -5 -13 -7 -16 -4 -16 17 0
25 -13 34 -25 16 -3 -6 -15 -8 -27 -6 -27 6 -36 15 -14 15 9 0 19 7 22 15 4 8
11 12 18 9 6 -3 3 1 -8 10 -12 10 -24 12 -35 7 -9 -5 -19 -8 -23 -8 -3 1 -10
-1 -14 -5 -4 -5 1 -8 11 -8 14 0 16 -3 8 -11 -6 -6 -9 -19 -6 -28 4 -13 3 -14
-5 -1 -6 8 -9 17 -6 21 2 4 -4 10 -15 14 -29 9 -25 60 5 74 16 7 21 16 17 30
-6 24 -23 18 -23 -8 0 -10 -8 -21 -18 -23 -16 -4 -18 -1 -15 21 3 14 4 36 4
49 -1 14 5 22 17 22 16 1 16 1 0 10 -9 6 -15 18 -13 28 2 9 4 21 4 25 1 5 7 5
14 2 6 -4 4 0 -5 7 -21 17 -35 68 -19 68 6 0 11 -9 11 -20 0 -11 7 -20 15 -20
11 0 15 9 13 29 -1 16 -5 29 -8 28 -3 0 -15 2 -27 7 -27 9 -30 31 -5 45 9 6
11 11 5 11 -7 0 -13 9 -13 21 0 11 4 17 10 14 6 -3 7 1 4 9 -7 18 11 22 21 6
4 -6 11 -8 16 -5 5 4 13 -4 18 -17 6 -13 10 -18 10 -11 2 21 -11 43 -25 43
-19 0 -18 10 4 26 10 8 12 13 5 14 -7 0 -13 4 -13 9 0 5 14 8 30 6 17 -2 30
-1 30 4 0 12 25 9 38 -5 9 -10 8 -16 -8 -27 -11 -8 -17 -17 -12 -22 4 -4 -1
-5 -10 -2 -14 5 -18 1 -18 -16 0 -16 3 -18 9 -8 10 16 31 6 31 -15 0 -8 5 -14
10 -14 6 0 10 12 10 26 0 14 -4 23 -10 19 -5 -3 -3 7 5 22 12 24 12 29 0 43
-8 9 -15 24 -15 33 0 10 -5 14 -15 11 -11 -5 -13 -2 -8 12 4 12 3 15 -5 10
-12 -7 -16 5 -13 33 2 7 -2 10 -8 6 -7 -4 -8 0 -4 11 5 14 3 16 -13 10 -15 -6
-16 -4 -7 5 9 9 8 15 -3 26 -8 8 -14 20 -13 26 0 9 2 8 6 0 6 -16 29 -17 39
-1 4 7 3 8 -4 4 -7 -4 -12 -3 -12 3 0 5 5 11 11 13 6 2 5 14 -5 33 -9 17 -16
27 -17 23 -1 -5 -3 -12 -4 -18 -1 -5 -3 -14 -4 -18 0 -5 -7 -9 -15 -9 -9 0
-13 9 -11 26 2 14 8 25 15 23 6 -1 9 2 5 8 -5 8 -11 7 -21 -1 -21 -17 -31 -2
-12 17 14 15 12 19 -23 52 -21 21 -39 43 -39 50 0 7 -3 11 -8 8 -14 -9 -77 11
-74 23 1 7 -3 11 -10 9 -7 -3 -13 -12 -13 -21 0 -8 -4 -19 -8 -23 -4 -4 -2
-13 5 -21 16 -20 2 -28 -18 -9 -13 13 -14 19 -4 31 10 12 9 15 -4 15 -16 0
-24 12 -30 42 -2 7 -6 21 -10 30 -4 9 -5 21 -2 27 4 5 1 13 -5 16 -5 4 -8 14
-5 22 3 8 -3 24 -14 35 -15 17 -17 24 -8 35 13 16 -3 33 -31 33 -11 0 -9 6 5
23 20 22 24 64 9 99 -5 13 -11 15 -25 8 -13 -7 -20 -6 -24 6 -10 26 -7 32 22
42 21 8 23 11 7 11 -19 1 -22 19 -16 104 1 5 8 2 16 -7 9 -8 12 -22 8 -32 -4
-12 -3 -15 6 -10 6 4 9 20 7 34 -2 15 -5 31 -5 36 -1 4 -8 6 -16 2 -8 -3 -15
-1 -15 4 0 6 3 10 8 11 4 0 15 2 25 4 9 2 17 0 17 -4 0 -4 6 -8 14 -8 12 0 12
3 0 22 -8 12 -11 25 -7 28 3 4 1 7 -6 7 -8 0 -11 -7 -7 -15 3 -9 0 -15 -9 -15
-8 0 -15 9 -15 20 0 11 6 20 14 20 8 0 17 4 20 9 3 5 0 8 -7 7 -6 0 -12 4 -12
9 0 6 3 9 7 8 9 -3 -18 48 -30 56 -17 11 -61 104 -54 115 12 18 9 55 -5 60 -7
3 -10 11 -7 19 5 15 -23 44 -33 33 -3 -3 -1 -6 5 -6 7 0 12 -4 12 -9 0 -7 -14
-8 -38 -2 -1 1 2 10 8 21 9 18 6 23 -25 41 -28 17 -33 24 -24 35 13 16 -1 19
-19 4 -6 -6 -10 -7 -7 -4 9 14 -16 43 -32 37 -11 -4 -14 -2 -11 8 3 8 14 14
26 13 12 0 19 2 17 6 -2 3 0 12 5 20 7 11 11 11 24 0 15 -11 15 -10 8 11 -5
12 -15 25 -22 27 -7 3 -10 0 -6 -6 4 -6 -2 -16 -13 -21 -14 -8 -20 -7 -25 4
-3 9 1 15 10 15 8 0 12 4 9 10 -9 15 58 70 71 59 8 -6 13 0 17 21 4 16 12 30
18 30 6 0 9 -7 5 -15 -3 -9 0 -15 8 -15 15 0 40 47 39 73 0 11 6 16 16 15 10
-2 17 5 19 18 2 12 11 29 20 37 60 56 65 59 93 55 23 -4 26 -2 17 9 -9 11 -6
13 15 9 15 -2 29 0 32 5 4 5 -9 10 -27 10 -18 1 -25 3 -15 6 12 3 16 10 13 20
-8 20 1 33 19 27 10 -4 12 -11 6 -23 -8 -13 -5 -17 12 -18 16 -2 18 0 8 7 -12
7 -12 12 2 34 10 14 18 29 19 33 6 19 32 41 44 36 8 -3 14 1 14 8 0 11 3 11
10 -1 14 -21 13 5 0 31 -7 11 -7 19 -1 19 5 0 18 3 28 6 15 5 15 4 3 -5 -8 -6
-10 -11 -5 -11 6 0 11 -24 12 -53 9 -273 17 -424 29 -507 3 -19 7 -57 9 -85 2
-27 7 -68 10 -90 3 -22 7 -88 10 -148 l4 -107 -35 -45 c-19 -25 -34 -49 -34
-54 0 -5 -7 -11 -15 -15 -8 -3 -15 -10 -15 -16 0 -5 -8 -19 -17 -29 -26 -31
-63 -131 -68 -182 -4 -39 0 -52 23 -82 38 -50 62 -52 155 -12 15 6 17 1 18
-36 1 -57 6 -86 24 -130 7 -20 12 -39 9 -42 -8 -8 102 -117 120 -118 9 -1 22
-2 29 -3 25 -4 67 17 104 50 20 19 33 34 29 34 -5 0 -4 6 1 13 19 23 33 81 48
194 3 18 14 76 26 128 21 99 27 225 14 328 -7 58 8 123 25 112 5 -3 11 3 14
13 8 24 88 112 102 112 6 0 24 -18 39 -40 15 -22 32 -40 36 -40 5 0 9 -5 9
-11 0 -6 17 -35 38 -65 20 -31 42 -63 47 -73 6 -9 31 -39 58 -65 26 -27 47
-53 47 -60 0 -6 5 -4 11 4 9 12 10 11 6 -5 -7 -34 47 -62 64 -33 6 9 8 6 6 -9
0 -12 -4 -20 -8 -17 -4 2 -11 -1 -15 -7 -4 -8 -3 -9 4 -5 7 4 12 2 12 -4 0 -6
4 -8 10 -5 5 3 15 -5 22 -19 8 -19 14 -23 24 -15 8 7 14 6 20 -2 5 -8 3 -9 -7
-4 -12 7 -12 6 -1 -7 10 -13 10 -17 0 -20 -8 -3 -7 -6 4 -11 13 -4 16 -1 13
14 -2 10 1 19 6 19 6 0 7 5 4 10 -3 6 -3 10 1 10 8 0 64 -57 64 -66 0 -8 43
-43 52 -44 10 0 -50 114 -102 198 -22 34 -37 62 -34 62 3 0 -1 7 -8 15 -32 35
-38 45 -38 60 0 9 -4 13 -10 10 -5 -3 -10 1 -10 9 0 25 -36 86 -46 78 -4 -4
-2 1 5 11 8 9 9 17 3 17 -6 0 -8 10 -4 23 5 19 3 20 -10 9 -11 -9 -18 -10 -23
-2 -6 9 1 14 17 11 9 -1 6 29 -5 47 -16 24 11 11 28 -14 9 -15 12 -23 5 -19
-8 5 -11 3 -8 -6 3 -8 11 -13 17 -11 6 1 11 -4 11 -12 0 -17 27 -29 35 -16 5
8 -12 48 -26 60 -3 3 -19 48 -36 100 -17 52 -37 109 -44 125 -7 17 -13 32 -13
35 -1 3 -5 11 -9 18 -5 6 -6 12 -2 12 3 0 -8 24 -24 54 l-30 54 23 25 c13 14
21 28 18 31 -3 3 -1 6 5 6 6 0 16 14 23 30 7 17 16 30 21 30 5 0 9 6 9 13 0 8
11 27 25 43 14 16 25 35 25 42 0 20 24 14 63 -19 20 -17 43 -29 50 -26 6 2 31
-15 53 -39 23 -24 47 -44 54 -44 8 0 10 -3 7 -7 -11 -10 44 -62 59 -56 8 3 20
0 28 -6 7 -6 16 -8 19 -4 4 3 7 1 7 -6 0 -8 8 -11 19 -8 19 5 51 -15 97 -59
12 -12 30 -24 40 -28 18 -7 3 14 -48 67 -10 10 -18 22 -18 28 0 6 12 -3 26
-20 14 -17 29 -29 34 -26 4 3 11 -7 16 -23 11 -40 14 -52 18 -107 6 -64 32
-176 44 -184 8 -5 20 -39 28 -79 1 -7 12 -46 24 -85 12 -40 24 -79 25 -87 2
-8 4 -16 5 -17 2 -2 4 -7 5 -13 1 -5 4 -12 5 -15 1 -3 3 -8 4 -12 3 -18 61
-128 68 -131 4 -2 8 -9 8 -16 0 -7 9 -24 21 -37 12 -13 31 -35 43 -49 31 -37
43 -42 50 -23 4 10 4 14 0 11 -12 -13 -84 88 -90 127 -3 21 -10 49 -15 62 -19
50 -7 36 22 -25 16 -35 34 -60 39 -57 6 4 5 12 -4 20 -8 9 -12 24 -9 36 4 14
2 20 -4 16 -18 -11 -33 36 -18 57 7 9 17 17 22 17 4 -1 8 3 8 8 0 5 3 13 8 17
4 4 7 16 7 26 0 10 4 18 9 18 6 0 8 10 5 23 -13 62 -14 86 -6 91 5 3 7 18 5
33 -8 52 -13 108 -16 178 -3 62 -2 65 7 33 5 -21 13 -38 17 -38 5 0 7 6 4 13
-4 11 -12 62 -19 118 -2 15 -7 32 -11 38 -4 7 -9 29 -11 49 -4 37 -9 71 -18
127 -2 17 -12 57 -21 90 -10 33 -18 71 -20 85 -1 14 -8 52 -15 83 -6 32 -9 77
-6 100 4 27 3 35 -3 22 -7 -17 -9 -14 -13 17 -2 21 -4 75 -3 122 0 52 -4 82
-10 80 -6 -3 -11 21 -12 58 -1 35 -7 64 -13 66 -5 2 -10 12 -10 21 0 14 6 17
25 13 14 -2 25 -8 25 -13 0 -5 5 -9 11 -9 7 0 8 7 4 18 -21 54 -26 133 -8 150
10 11 12 17 4 20 -6 2 -11 12 -11 22 0 26 -10 50 -21 50 -5 0 -6 -12 -3 -27 7
-25 6 -27 -9 -14 -16 13 -10 42 11 55 14 8 6 61 -9 61 -8 0 -15 11 -17 25 -2
14 -9 30 -16 35 -15 12 -29 58 -15 49 8 -4 13 11 7 19 -2 2 5 15 14 29 20 31
16 37 -23 31 -28 -4 -34 2 -30 34 1 7 -3 22 -9 32 -6 13 -7 22 0 26 5 3 7 12
3 21 -3 8 -8 13 -10 10 -2 -2 -17 -1 -33 4 -19 6 -34 4 -48 -6 -16 -11 -22
-11 -30 -1 -13 15 -8 63 9 83 6 8 8 18 4 22 -4 4 -10 1 -12 -5 -3 -7 -9 -13
-14 -13 -4 0 -6 7 -3 15 4 8 3 15 0 15 -3 0 -7 -3 -8 -7z m-792 -370 c-4 -25
-25 -28 -23 -4 1 12 7 21 13 21 7 0 11 -8 10 -17z m1032 -268 c1 -13 2 -28 3
-32 5 -27 -3 -54 -13 -50 -14 4 -17 62 -5 90 10 23 12 22 15 -8z m-445 -365
c6 -24 -6 -26 -27 -5 -19 19 -10 51 9 35 7 -6 15 -20 18 -30z m47 -416 c0 -2
-9 0 -20 6 -11 6 -20 13 -20 16 0 2 9 0 20 -6 11 -6 20 -13 20 -16z m70 -55
c0 -5 -4 -9 -10 -9 -5 0 -10 7 -10 16 0 8 5 12 10 9 6 -3 10 -10 10 -16z m68
-10 c2 -4 11 -5 20 -1 15 5 15 4 0 -12 -21 -21 -23 -27 -5 -21 18 7 32 -6 45
-42 15 -44 4 -41 -40 13 -21 25 -38 42 -38 38 0 -10 -29 29 -30 39 0 10 44 -3
48 -14z m-1048 -89 c0 -9 28 -44 80 -99 57 -60 56 -56 11 -103 -30 -32 -41
-38 -41 -25 0 10 -5 28 -12 40 -7 12 -13 30 -15 41 -2 10 -12 45 -23 79 -23
69 -24 77 -10 77 6 0 10 -5 10 -10z m-660 -577 c-1 -18 -18 -35 -24 -24 -4 6
-4 16 -1 21 7 12 25 13 25 3z m-70 -88 c0 -9 6 -12 16 -8 14 5 15 3 4 -17 -12
-22 -13 -22 -23 -4 -15 26 -19 57 -7 49 5 -3 10 -13 10 -20z m2094 9 c5 -14 4
-15 -9 -4 -17 14 -19 20 -6 20 5 0 12 -7 15 -16z m-1770 -636 c-4 -6 1 -17 11
-24 17 -12 16 -14 -9 -24 -27 -10 -64 -14 -38 -3 16 6 15 23 -2 23 -8 0 -16 6
-19 14 -4 10 0 12 14 9 10 -3 19 0 19 6 0 6 7 11 16 11 9 0 12 -5 8 -12z
m-134 -18 c-6 -11 -13 -20 -16 -20 -2 0 0 9 6 20 6 11 13 20 16 20 2 0 0 -9
-6 -20z m10 -40 c-6 -11 -16 -17 -22 -14 -7 5 -5 12 7 21 25 18 28 17 15 -7z
m143 -45 c-3 -9 -8 -14 -10 -11 -3 3 -2 9 2 15 9 16 15 13 8 -4z m51 -89 c-3
-9 -10 -13 -16 -10 -5 3 -4 12 3 20 15 18 22 13 13 -10z m36 -60 c0 -2 -7 -6
-15 -10 -8 -3 -15 -1 -15 4 0 6 7 10 15 10 8 0 15 -2 15 -4z m-43 -611 c0 -8
-4 -12 -9 -9 -5 3 -6 10 -3 15 9 13 12 11 12 -6z m61 -27 c-2 -7 2 -12 9 -13
21 0 36 -22 22 -30 -7 -5 -10 -4 -5 3 3 6 2 13 -4 17 -5 3 -10 1 -10 -6 0 -8
-4 -8 -15 1 -8 7 -15 9 -15 6 0 -4 -5 -4 -12 0 -7 5 -5 11 7 21 23 16 26 16
23 1z m102 -39 c0 -3 -7 -6 -15 -6 -15 0 -20 18 -8 30 6 7 22 -10 23 -24z
m-25 -69 c-4 -6 6 -10 22 -11 15 0 22 -3 16 -6 -7 -2 -13 -11 -13 -19 0 -8 6
-14 13 -14 8 0 7 -4 -3 -10 -13 -8 -12 -10 5 -11 13 -1 10 -4 -10 -8 -37 -9
-41 -6 -24 16 11 15 10 15 -9 -1 -12 -11 -25 -16 -29 -13 -3 4 -2 7 4 7 5 0 9
12 8 28 -1 15 2 33 8 40 11 14 21 16 12 2z m-35 -40 c0 -5 -7 -10 -15 -10 -8
0 -15 5 -15 10 0 6 7 10 15 10 8 0 15 -4 15 -10z m37 -114 c0 -8 -8 -14 -18
-13 -14 1 -15 4 -7 14 14 17 25 16 25 -1z m-102 -196 c3 -6 -1 -7 -9 -4 -18 7
-21 14 -7 14 6 0 13 -4 16 -10z m-15 -104 c0 -3 -4 -8 -10 -11 -5 -3 -10 -1
-10 4 0 6 5 11 10 11 6 0 10 -2 10 -4z m31 -35 c4 -1 9 -11 12 -23 5 -20 5
-21 -7 -6 -8 11 -17 14 -26 8 -9 -6 -17 -5 -22 3 -10 16 -1 26 20 22 9 -2 20
-4 23 -4z m-621 -371 c0 -5 -7 -10 -16 -10 -8 0 -12 5 -9 10 3 6 10 10 16 10
5 0 9 -4 9 -10z"/>
<path d="M5316 5651 c-4 -7 -5 -15 -2 -18 9 -9 19 4 14 18 -4 11 -6 11 -12 0z"/>
<path d="M5305 5549 c-4 -6 -5 -12 -2 -15 2 -3 7 2 10 11 7 17 1 20 -8 4z"/>
<path d="M5222 5447 c-29 -30 -41 -48 -36 -60 5 -14 10 -12 30 12 13 16 24 32
24 35 0 4 12 18 28 31 18 16 22 24 12 24 -8 0 -34 -19 -58 -42z"/>
<path d="M5120 5355 c-10 -12 -10 -15 3 -15 8 0 20 7 27 15 10 12 10 15 -3 15
-8 0 -20 -7 -27 -15z"/>
<path d="M4965 5179 c-11 -17 1 -21 15 -4 8 9 8 15 2 15 -6 0 -14 -5 -17 -11z"/>
<path d="M5470 5052 c0 -9 93 -52 99 -46 3 2 -4 12 -15 22 -20 19 -84 37 -84
24z"/>
<path d="M4815 5030 c-3 -5 -1 -10 4 -10 6 0 11 5 11 10 0 6 -2 10 -4 10 -3 0
-8 -4 -11 -10z"/>
<path d="M5656 5005 c4 -8 10 -12 15 -9 11 6 2 24 -11 24 -5 0 -7 -7 -4 -15z"/>
<path d="M4692 4915 c-11 -13 -10 -15 7 -15 26 0 51 10 51 21 0 14 -44 10 -58
-6z"/>
<path d="M5450 4920 c0 -5 5 -10 11 -10 5 0 7 5 4 10 -3 6 -8 10 -11 10 -2 0
-4 -4 -4 -10z"/>
<path d="M5830 4910 c26 -21 56 -27 45 -10 -4 6 -10 8 -15 5 -4 -3 -13 2 -20
10 -7 8 -18 15 -24 15 -6 0 0 -9 14 -20z"/>
<path d="M4335 4890 c-3 -5 -1 -10 4 -10 6 0 11 5 11 10 0 6 -2 10 -4 10 -3 0
-8 -4 -11 -10z"/>
<path d="M4649 4873 c-13 -15 -12 -15 9 -4 23 12 28 21 13 21 -5 0 -15 -7 -22
-17z"/>
<path d="M5890 4882 c0 -5 11 -14 25 -20 14 -6 25 -10 25 -8 0 2 -11 11 -25
20 -14 9 -25 13 -25 8z"/>
<path d="M6622 4830 c0 -14 2 -19 5 -12 2 6 2 18 0 25 -3 6 -5 1 -5 -13z"/>
<path d="M4240 4552 c-14 -9 -29 -22 -33 -29 -4 -7 -19 -13 -33 -13 -27 0
-104 -22 -104 -30 0 -3 -11 -18 -25 -34 -31 -37 -31 -41 0 -20 31 20 33 5 3
-21 -107 -90 -136 -118 -131 -130 2 -8 -2 -24 -11 -37 -33 -47 -14 -47 44 -1
34 26 74 57 89 68 27 19 51 56 65 98 3 11 2 16 -4 12 -6 -3 -10 -2 -10 4 0 5
5 13 10 16 6 3 10 15 10 26 0 21 20 25 37 8 13 -13 63 15 63 35 0 6 14 17 30
23 17 6 30 18 30 27 0 19 1 19 -30 -2z"/>
<path d="M4087 4543 c-4 -3 -7 -11 -7 -17 0 -6 5 -5 12 2 6 6 9 14 7 17 -3 3
-9 2 -12 -2z"/>
<path d="M3802 4521 l-23 -17 27 -12 c14 -7 29 -10 32 -7 3 3 0 5 -7 5 -8 0
-9 5 -1 19 14 27 -1 33 -28 12z"/>
<path d="M3929 4471 c-19 -16 -20 -20 -8 -21 17 0 45 27 37 35 -3 3 -16 -3
-29 -14z"/>
<path d="M3970 4439 c0 -5 5 -7 10 -4 6 3 10 8 10 11 0 2 -4 4 -10 4 -5 0 -10
-5 -10 -11z"/>
<path d="M4225 4430 c-10 -11 -13 -20 -7 -20 6 0 16 9 22 20 6 11 9 20 7 20
-2 0 -12 -9 -22 -20z"/>
<path d="M3560 4430 c0 -5 4 -10 9 -10 6 0 13 5 16 10 3 6 -1 10 -9 10 -9 0
-16 -4 -16 -10z"/>
<path d="M4090 4315 c-8 -9 -8 -15 -2 -15 12 0 26 19 19 26 -2 2 -10 -2 -17
-11z"/>
<path d="M3470 4300 c-12 -23 -5 -26 16 -6 16 17 18 26 4 26 -5 0 -14 -9 -20
-20z"/>
<path d="M3704 4296 c-10 -8 -16 -17 -13 -20 3 -3 14 3 24 14 21 23 17 26 -11
6z"/>
<path d="M3804 4238 c-42 -33 -65 -58 -55 -58 5 0 17 7 26 16 12 13 19 14 30
4 12 -10 15 -9 15 7 0 10 5 24 12 31 22 22 1 22 -28 0z"/>
<path d="M3445 4200 c-10 -11 -13 -20 -7 -20 6 0 16 9 22 20 6 11 9 20 7 20
-2 0 -12 -9 -22 -20z"/>
<path d="M3292 4201 c-8 -4 -13 -19 -12 -32 4 -43 1 -49 -35 -63 -19 -8 -35
-20 -35 -26 0 -6 -10 -15 -23 -21 -24 -11 -54 -69 -36 -69 19 0 79 55 79 72 0
9 13 21 30 27 17 5 30 17 30 25 0 8 18 25 40 37 46 26 53 43 13 33 -22 -6 -25
-4 -20 10 7 17 -9 21 -31 7z"/>
<path d="M3570 4180 c0 -5 5 -10 11 -10 5 0 7 5 4 10 -3 6 -8 10 -11 10 -2 0
-4 -4 -4 -10z"/>
<path d="M3423 4138 c-23 -11 -31 -28 -14 -28 10 0 41 28 41 36 0 5 0 5 -27
-8z"/>
<path d="M3628 4143 c7 -3 16 -2 19 1 4 3 -2 6 -13 5 -11 0 -14 -3 -6 -6z"/>
<path d="M3800 4131 c-7 -15 -7 -21 0 -21 12 0 25 28 17 36 -3 3 -10 -4 -17
-15z"/>
<path d="M3522 4064 c-29 -19 -56 -42 -59 -50 -3 -8 -11 -14 -19 -14 -8 0 -14
-4 -14 -10 0 -19 19 -10 65 30 57 49 83 54 61 11 -16 -31 -13 -43 10 -34 46
18 -19 -66 -74 -96 -12 -7 -22 -17 -22 -23 0 -7 7 -5 18 4 9 9 33 23 52 33 38
19 46 25 103 79 22 20 42 34 47 31 9 -6 33 45 25 54 -4 3 -12 -2 -19 -12 -7
-9 -19 -17 -26 -17 -9 0 -7 7 5 21 19 20 19 20 -9 10 -29 -12 -76 -5 -76 10 0
15 -14 10 -68 -27z m103 -14 c-3 -5 -13 -10 -21 -10 -8 0 -14 5 -14 10 0 6 9
10 21 10 11 0 17 -4 14 -10z m-5 -45 c-7 -8 -17 -15 -23 -15 -5 0 -2 9 8 20
21 23 35 19 15 -5z"/>
<path d="M4435 4080 c-3 -5 -1 -10 4 -10 6 0 11 5 11 10 0 6 -2 10 -4 10 -3 0
-8 -4 -11 -10z"/>
<path d="M3005 4000 c4 -6 11 -8 16 -5 14 9 11 15 -7 15 -8 0 -12 -5 -9 -10z"/>
<path d="M3049 3983 c-13 -16 -12 -17 4 -4 16 13 21 21 13 21 -2 0 -10 -8 -17
-17z"/>
<path d="M3176 3979 c-14 -11 -26 -25 -26 -30 0 -12 47 21 54 39 7 17 3 15
-28 -9z"/>
<path d="M3456 3955 c-3 -8 -2 -15 3 -15 5 0 14 7 21 15 10 12 10 15 -3 15 -8
0 -17 -7 -21 -15z"/>
<path d="M2911 3944 c0 -11 3 -14 6 -6 3 7 2 16 -1 19 -3 4 -6 -2 -5 -13z"/>
<path d="M3630 3939 c-44 -33 -50 -40 -50 -50 0 -13 78 30 84 47 8 22 -8 23
-34 3z"/>
<path d="M3027 3911 c-23 -14 -25 -20 -13 -24 9 -4 27 4 42 18 32 30 12 34
-29 6z"/>
<path d="M3110 3870 c-30 -26 -20 -36 11 -11 13 11 21 22 18 25 -3 3 -16 -3
-29 -14z"/>
<path d="M3185 3870 c-3 -5 1 -10 9 -10 9 0 16 5 16 10 0 6 -4 10 -9 10 -6 0
-13 -4 -16 -10z"/>
<path d="M3316 3854 c-9 -8 -16 -20 -16 -26 0 -6 1 -9 3 -7 1 2 11 14 21 27
22 25 16 30 -8 6z"/>
<path d="M6730 3835 c0 -8 4 -15 10 -15 5 0 7 7 4 15 -4 8 -8 15 -10 15 -2 0
-4 -7 -4 -15z"/>
<path d="M3245 3819 c-11 -17 1 -21 15 -4 8 9 8 15 2 15 -6 0 -14 -5 -17 -11z"/>
<path d="M3478 3812 c-38 -23 -36 -38 2 -15 17 9 30 21 30 25 0 10 0 10 -32
-10z"/>
<path d="M3096 3785 c-20 -14 -41 -25 -46 -25 -6 0 -10 -6 -10 -14 0 -31 22
-25 67 18 53 50 47 60 -11 21z"/>
<path d="M2950 3789 c0 -5 5 -7 10 -4 6 3 10 8 10 11 0 2 -4 4 -10 4 -5 0 -10
-5 -10 -11z"/>
<path d="M2839 3769 c-19 -16 -20 -18 -4 -10 34 17 51 31 39 31 -7 0 -22 -9
-35 -21z"/>
<path d="M3440 3729 c0 -5 5 -7 10 -4 6 3 10 8 10 11 0 2 -4 4 -10 4 -5 0 -10
-5 -10 -11z"/>
<path d="M2814 3684 c-19 -16 -30 -20 -35 -12 -12 18 -38 -9 -32 -32 7 -27 17
-25 55 10 18 16 41 36 52 43 14 10 15 14 4 14 -8 0 -28 -11 -44 -23z"/>
<path d="M3415 3700 c-3 -5 -1 -10 4 -10 6 0 11 5 11 10 0 6 -2 10 -4 10 -3 0
-8 -4 -11 -10z"/>
<path d="M3230 3678 c-11 -10 -21 -18 -24 -18 -3 0 -16 -10 -29 -22 -49 -48
-82 -72 -102 -74 -11 -1 -23 -3 -26 -3 -4 -1 -9 -13 -12 -28 -4 -16 -22 -38
-42 -53 -77 -53 -81 -58 -68 -71 10 -10 20 -6 50 19 21 18 57 42 80 54 46 23
63 48 35 48 -13 1 -9 8 16 30 18 17 40 30 50 30 10 0 37 16 61 36 29 25 48 34
62 31 15 -4 19 -2 15 10 -3 8 -6 18 -6 23 0 15 -40 7 -60 -12z"/>
<path d="M3347 3663 c-9 -2 -15 -9 -12 -14 9 -14 22 -11 29 6 3 8 4 14 3 14
-1 -1 -10 -3 -20 -6z"/>
<path d="M2677 3643 c-4 -3 -7 -11 -7 -17 0 -6 5 -5 12 2 6 6 9 14 7 17 -3 3
-9 2 -12 -2z"/>
<path d="M3056 3625 c-9 -14 -14 -25 -11 -25 14 0 65 31 65 40 0 20 -38 9 -54
-15z"/>
<path d="M3295 3600 c-3 -5 1 -10 9 -10 8 0 18 5 21 10 3 6 -1 10 -9 10 -8 0
-18 -4 -21 -10z"/>
<path d="M3195 3581 c-3 -5 -1 -12 5 -16 5 -3 10 1 10 9 0 18 -6 21 -15 7z"/>
<path d="M2805 3544 c-24 -25 -10 -29 16 -5 13 12 18 21 12 21 -7 0 -19 -7
-28 -16z"/>
<path d="M2661 3491 c-43 -27 -53 -44 -23 -39 18 3 20 -16 6 -62 -7 -24 -7
-24 36 8 25 18 45 42 47 54 6 45 11 50 32 36 15 -9 19 -19 14 -38 l-5 -25 22
22 23 21 -21 22 c-30 33 -81 33 -131 1z"/>
<path d="M2814 3432 c-6 -10 -34 -23 -62 -31 -28 -7 -51 -16 -51 -19 3 -22 -3
-32 -20 -32 -10 0 -44 -25 -75 -55 -31 -30 -59 -55 -64 -55 -4 0 -20 -18 -36
-40 -17 -22 -38 -40 -48 -40 -10 0 -18 -7 -18 -17 0 -9 -12 -31 -26 -50 -14
-19 -23 -37 -20 -40 3 -4 6 -3 6 1 0 4 8 2 18 -3 13 -7 26 -6 43 2 13 7 40 12
59 12 22 -1 45 7 63 22 15 12 46 27 67 33 22 6 40 15 40 20 0 5 6 15 14 22 18
19 30 58 17 58 -6 0 -2 15 8 33 10 17 23 32 30 32 6 0 15 6 20 14 5 7 37 20
72 28 35 8 69 19 76 25 18 14 16 38 -2 38 -8 0 -15 5 -15 11 0 6 -6 9 -12 7
-7 -3 -13 -11 -13 -19 0 -14 -19 -39 -29 -39 -2 0 -6 7 -8 15 -3 16 -21 10
-80 -29 -16 -10 -28 -14 -28 -9 0 5 18 20 41 32 40 23 67 67 52 82 -5 5 -13 1
-19 -9z m-132 -172 c-53 -49 -64 -70 -37 -70 27 0 15 -24 -24 -52 -52 -37 -59
-35 -27 7 24 31 25 35 9 35 -15 0 -16 2 -3 10 8 5 15 21 16 37 1 15 3 31 3 35
1 3 10 4 20 1 13 -3 31 6 53 26 18 16 35 28 37 25 3 -3 -18 -27 -47 -54z
m-153 -152 c-18 -25 -23 -28 -30 -15 -12 20 -2 45 19 50 30 6 33 -4 11 -35z"/>
<path d="M2595 3420 c-3 -5 -1 -10 4 -10 6 0 11 5 11 10 0 6 -2 10 -4 10 -3 0
-8 -4 -11 -10z"/>
<path d="M2960 3389 c0 -5 5 -7 10 -4 6 3 10 8 10 11 0 2 -4 4 -10 4 -5 0 -10
-5 -10 -11z"/>
<path d="M3026 3326 c-4 -18 -15 -25 -42 -30 -32 -7 -42 -25 -18 -33 19 -6 79
42 80 65 2 29 -12 28 -20 -2z"/>
<path d="M2540 3319 c0 -17 23 -21 37 -6 13 13 12 15 -11 15 -14 0 -26 -4 -26
-9z"/>
<path d="M4585 3300 c4 -6 11 -8 16 -5 14 9 11 15 -7 15 -8 0 -12 -5 -9 -10z"/>
<path d="M5990 3281 c0 -5 6 -12 13 -14 9 -4 8 -8 -3 -17 -13 -10 -13 -11 1
-7 9 3 22 0 29 -6 7 -7 3 3 -9 21 -23 33 -31 39 -31 23z"/>
<path d="M2915 3270 c-3 -5 -1 -10 4 -10 6 0 11 5 11 10 0 6 -2 10 -4 10 -3 0
-8 -4 -11 -10z"/>
<path d="M4650 3246 c0 -8 4 -17 8 -20 4 -2 8 4 8 15 0 10 -4 19 -8 19 -4 0
-8 -6 -8 -14z"/>
<path d="M2922 3237 c-8 -7 -27 -25 -43 -42 -21 -21 -28 -24 -23 -11 7 18 4
18 -33 -4 -22 -12 -56 -35 -74 -51 -19 -16 -42 -32 -52 -35 -24 -7 -16 -30 9
-26 10 2 40 24 66 48 26 24 52 44 58 44 7 0 5 -7 -4 -16 -9 -8 -16 -20 -16
-25 0 -15 29 4 85 55 28 25 53 45 58 46 4 0 7 7 7 15 0 18 -20 19 -38 2z"/>
<path d="M4710 3209 c0 -5 5 -7 10 -4 6 3 10 8 10 11 0 2 -4 4 -10 4 -5 0 -10
-5 -10 -11z"/>
<path d="M4720 3160 c-9 -6 -10 -10 -3 -10 6 0 15 5 18 10 8 12 4 12 -15 0z"/>
<path d="M2770 3079 c0 -5 5 -7 10 -4 6 3 10 8 10 11 0 2 -4 4 -10 4 -5 0 -10
-5 -10 -11z"/>
<path d="M2935 3050 c-11 -4 -30 -17 -42 -29 -12 -12 -25 -21 -28 -21 -7 0
-65 -60 -90 -94 -11 -15 -36 -44 -55 -65 -44 -48 -59 -66 -139 -170 -36 -46
-75 -95 -88 -109 -13 -14 -23 -29 -23 -33 0 -14 -77 -31 -176 -38 -21 -2 -65
-51 -58 -63 5 -7 10 -31 12 -53 2 -22 5 -49 6 -60 2 -11 -1 -33 -5 -48 -5 -16
-4 -40 2 -55 6 -15 13 -76 16 -137 6 -121 10 -170 13 -170 3 0 6 -41 13 -166
4 -58 8 -112 11 -120 3 -8 7 -53 11 -101 4 -64 2 -89 -7 -95 -19 -12 -42 -57
-32 -60 28 -10 59 -30 59 -38 1 -6 4 -19 7 -30 4 -11 9 -36 12 -55 5 -31 11
-62 20 -95 1 -5 6 -20 10 -32 4 -14 1 -33 -7 -50 -14 -26 -13 -30 14 -60 16
-19 37 -63 50 -106 12 -39 34 -98 50 -129 16 -32 26 -58 24 -58 -7 0 47 -83
60 -92 27 -19 78 18 78 56 0 14 4 26 9 26 5 0 8 15 5 34 -3 24 0 36 9 40 8 3
12 11 10 18 -13 41 -15 68 -6 68 5 0 10 -9 10 -19 0 -29 11 -52 21 -45 5 3 5
13 -1 25 -6 10 -9 19 -6 19 3 0 0 14 -5 32 -7 24 -6 29 3 20 20 -20 25 -14 22
30 -5 82 9 119 67 179 71 74 114 135 148 212 16 34 49 90 75 123 25 34 46 66
46 71 0 6 11 18 24 29 14 10 27 27 30 39 3 11 20 38 39 60 18 22 43 59 55 83
l22 43 -21 -6 -22 -7 21 37 c16 25 21 48 18 73 -3 28 2 45 21 70 19 25 22 37
14 45 -8 8 -11 8 -11 -1 0 -7 -4 -12 -10 -12 -14 0 -12 15 7 58 9 20 15 40 15
45 -1 4 3 7 9 7 5 0 7 5 4 10 -3 6 -3 10 2 10 8 0 33 47 33 62 0 16 -19 8 -47
-20 -26 -27 -37 -40 -90 -111 -10 -13 -25 -31 -34 -41 -9 -9 -30 -38 -48 -63
-18 -26 -37 -47 -42 -47 -6 0 -8 -4 -5 -9 3 -5 -2 -15 -10 -22 -9 -8 -28 -32
-42 -54 -14 -22 -37 -53 -52 -68 -15 -16 -45 -54 -66 -85 -22 -31 -47 -66 -58
-77 -10 -11 -36 -43 -57 -72 -21 -28 -43 -54 -49 -58 -10 -6 -14 20 -11 58 2
10 -4 17 -14 17 -21 0 -6 28 51 97 24 28 44 56 44 61 0 6 14 25 30 44 48 53
117 166 124 202 3 18 15 42 27 54 11 12 17 22 13 22 -3 0 -1 6 5 14 8 10 9 16
2 21 -7 4 -6 16 5 36 8 17 13 33 10 36 -3 3 -1 14 5 25 6 10 7 28 4 39 -6 19
-8 19 -30 5 -31 -21 -40 -5 -20 34 8 16 12 30 7 30 -18 0 -88 -58 -122 -100
-19 -23 -42 -50 -51 -59 -8 -9 -33 -38 -54 -64 -21 -26 -43 -46 -49 -44 -6 2
-16 -10 -22 -27 l-11 -31 -5 33 c-3 22 0 39 10 49 13 13 13 18 1 41 -8 16 -14
52 -14 85 1 51 -1 57 -17 51 -15 -5 -17 -2 -9 18 5 13 7 36 6 52 -3 20 5 37
27 59 16 18 37 44 46 59 9 16 19 28 23 28 12 0 52 72 55 98 2 13 9 29 17 35
14 11 21 34 34 102 3 17 19 47 35 68 16 21 27 45 24 53 -5 12 21 49 72 102 18
20 15 24 -8 12 -16 -9 -20 -8 -20 6 0 16 35 73 53 85 4 3 11 20 13 38 5 31 5
31 -30 25 -41 -6 -47 7 -14 30 26 19 13 38 -17 26z m-305 -1201 c0 -6 -4 -7
-10 -4 -5 3 -10 11 -10 16 0 6 5 7 10 4 6 -3 10 -11 10 -16z m-93 -78 c0 -11
-5 -18 -9 -15 -4 3 -5 11 -1 19 7 21 12 19 10 -4z m135 -339 c6 -68 -9 -78
-18 -12 -4 27 -11 50 -16 50 -5 0 -4 10 3 22 16 29 26 9 31 -60z"/>
<path d="M2690 3018 c-11 -12 -18 -23 -16 -26 8 -8 46 19 46 33 0 20 -6 19
-30 -7z"/>
<path d="M2446 3015 c-10 -8 -22 -12 -27 -10 -4 3 -10 1 -14 -5 -3 -5 -1 -10
6 -10 7 0 2 -11 -11 -25 -13 -14 -19 -25 -13 -25 6 0 16 7 23 15 8 10 21 13
38 8 22 -5 24 -3 19 16 -3 11 -1 24 4 27 11 6 12 24 2 24 -5 0 -17 -7 -27 -15z"/>
<path d="M4736 2968 c3 -5 10 -6 15 -3 13 9 11 12 -6 12 -8 0 -12 -4 -9 -9z"/>
<path d="M2445 2939 c-11 -17 1 -21 15 -4 8 9 8 15 2 15 -6 0 -14 -5 -17 -11z"/>
<path d="M2595 2939 c-11 -17 1 -21 15 -4 8 9 8 15 2 15 -6 0 -14 -5 -17 -11z"/>
<path d="M2487 2890 c-25 -27 -52 -50 -60 -50 -16 0 -67 -54 -67 -71 0 -6 15
-1 34 10 19 12 36 18 38 14 3 -5 4 -3 2 2 -1 6 22 35 52 65 30 30 54 60 54 67
0 19 -3 17 -53 -37z"/>
<path d="M2415 2920 c-3 -5 -1 -10 4 -10 6 0 11 5 11 10 0 6 -2 10 -4 10 -3 0
-8 -4 -11 -10z"/>
<path d="M2550 2900 c0 -5 7 -7 15 -4 8 4 15 8 15 10 0 2 -7 4 -15 4 -8 0 -15
-4 -15 -10z"/>
<path d="M4970 2481 c0 -8 6 -11 16 -7 9 3 20 6 25 6 5 0 9 4 9 9 0 5 -11 8
-25 7 -14 0 -25 -7 -25 -15z"/>
<path d="M4948 2383 c7 -3 16 -2 19 1 4 3 -2 6 -13 5 -11 0 -14 -3 -6 -6z"/>
<path d="M4980 2365 c-7 -9 -10 -18 -7 -21 3 -3 10 4 17 15 13 25 8 27 -10 6z"/>
<path d="M4930 2355 c7 -8 17 -12 22 -9 6 4 5 10 -3 15 -22 14 -33 10 -19 -6z"/>
<path d="M5050 2336 c0 -2 8 -10 18 -17 15 -13 16 -12 3 4 -13 16 -21 21 -21
13z"/>
<path d="M5020 2319 c0 -5 5 -7 10 -4 6 3 10 8 10 11 0 2 -4 4 -10 4 -5 0 -10
-5 -10 -11z"/>
<path d="M3676 2303 c-10 -10 -7 -20 10 -37 17 -17 34 -21 34 -8 0 15 -37 52
-44 45z"/>
<path d="M5008 2293 c7 -3 16 -2 19 1 4 3 -2 6 -13 5 -11 0 -14 -3 -6 -6z"/>
<path d="M3655 2260 c3 -5 8 -10 11 -10 2 0 4 5 4 10 0 6 -5 10 -11 10 -5 0
-7 -4 -4 -10z"/>
<path d="M5059 2270 c-4 -26 -8 -41 -13 -58 -4 -11 -2 -23 4 -27 15 -9 12 -35
-5 -35 -8 0 -15 -4 -15 -9 0 -15 18 -23 25 -11 10 16 35 12 29 -5 -4 -8 -10
-13 -14 -10 -5 3 -11 1 -14 -4 -10 -15 20 -6 38 11 15 16 15 18 -4 28 -11 6
-19 18 -19 28 1 16 2 16 6 0 9 -35 19 -17 18 30 -1 26 -6 45 -10 44 -4 -2 -12
2 -16 10 -5 7 -9 11 -10 8z m11 -65 c-7 -9 -15 -13 -19 -10 -3 3 1 10 9 15 21
14 24 12 10 -5z"/>
<path d="M5010 2220 c0 -5 5 -10 11 -10 5 0 7 5 4 10 -3 6 -8 10 -11 10 -2 0
-4 -4 -4 -10z"/>
<path d="M4920 2199 c0 -5 5 -7 10 -4 6 3 10 8 10 11 0 2 -4 4 -10 4 -5 0 -10
-5 -10 -11z"/>
<path d="M3670 2174 c0 -21 37 -37 44 -19 5 14 -8 28 -31 31 -7 1 -13 -4 -13
-12z"/>
<path d="M4951 2148 c5 -10 15 -18 21 -18 6 0 8 3 5 7 -4 3 -3 11 2 17 6 7 2
11 -14 11 -19 0 -21 -3 -14 -17z"/>
<path d="M4995 2130 c-3 -4 -2 -16 2 -26 5 -13 3 -16 -10 -11 -9 3 -17 2 -17
-4 0 -16 -27 -39 -35 -31 -5 4 -5 1 -1 -5 4 -7 17 -13 29 -13 17 0 19 2 8 9
-12 7 -5 13 26 26 31 13 40 21 36 35 -6 21 -29 34 -38 20z"/>
<path d="M3674 2079 c-3 -6 -3 -13 0 -16 3 -4 6 -1 6 5 0 6 7 9 15 6 8 -4 15
-4 15 -1 0 11 -30 16 -36 6z"/>
<path d="M5015 2060 c3 -5 8 -10 11 -10 2 0 4 5 4 10 0 6 -5 10 -11 10 -5 0
-7 -4 -4 -10z"/>
<path d="M3687 1983 c4 -11 3 -14 -5 -9 -7 4 -12 3 -12 -3 0 -5 5 -13 10 -16
6 -4 8 -10 5 -15 -3 -4 5 -10 16 -13 18 -5 20 -2 15 20 -5 16 -3 22 4 18 22
-13 9 4 -15 19 -23 15 -24 15 -18 -1z"/>
<path d="M5090 1680 c0 -5 5 -10 11 -10 5 0 7 5 4 10 -3 6 -8 10 -11 10 -2 0
-4 -4 -4 -10z"/>
<path d="M4965 1260 c-3 -5 -5 -10 -3 -11 26 -6 39 -5 45 3 3 7 1 8 -5 4 -7
-4 -12 -2 -12 3 0 14 -17 14 -25 1z"/>
<path d="M4055 1181 c-3 -5 -1 -12 5 -16 5 -3 10 1 10 9 0 18 -6 21 -15 7z"/>
<path d="M4353 1065 c0 -8 4 -15 9 -15 4 0 8 4 8 9 0 6 -4 12 -8 15 -5 3 -9
-1 -9 -9z"/>
</g>
</svg>
