<?xml version="1.0" standalone="no"?>
<!DOCTYPE svg PUBLIC "-//W3C//DTD SVG 20010904//EN"
 "http://www.w3.org/TR/2001/REC-SVG-20010904/DTD/svg10.dtd">
<svg version="1.0" xmlns="http://www.w3.org/2000/svg"
 width="600.000000pt" height="600.000000pt" viewBox="0 0 600.000000 600.000000"
 preserveAspectRatio="xMidYMid meet">
<metadata>
Created by potrace 1.11, written by Peter Selinger 2001-2013
</metadata>
<g transform="translate(0.000000,600.000000) scale(0.100000,-0.100000)"
fill="#000000" stroke="none">
<path d="M2845 5594 c-54 -9 -91 -10 -115 -4 -45 12 -102 5 -158 -20 -25 -11
-53 -20 -64 -20 -10 0 -44 -9 -76 -21 -31 -11 -77 -26 -102 -31 -38 -9 -91
-36 -110 -58 -3 -3 -30 -7 -60 -9 -60 -3 -77 -13 -91 -48 -6 -17 -15 -23 -36
-21 -39 3 -101 -11 -132 -29 -14 -9 -44 -35 -66 -58 -22 -23 -57 -47 -78 -54
-42 -14 -97 -56 -97 -75 0 -7 -16 -18 -34 -24 -19 -7 -38 -22 -41 -32 -4 -11
-11 -20 -17 -20 -17 0 -128 -118 -128 -137 -1 -11 -24 -32 -59 -54 -93 -58
-128 -117 -110 -183 6 -22 5 -34 -6 -46 -8 -9 -15 -30 -15 -47 0 -19 -14 -50
-34 -81 -39 -56 -57 -131 -43 -177 12 -39 17 -334 6 -341 -13 -8 -10 -66 5
-93 12 -21 11 -26 -6 -43 -25 -25 -18 -57 23 -112 16 -22 29 -52 29 -67 0 -18
17 -46 54 -87 30 -34 57 -71 61 -83 4 -12 31 -47 60 -77 50 -52 53 -58 58
-119 4 -36 12 -72 18 -79 6 -8 8 -14 3 -14 -4 0 -3 -5 4 -12 7 -7 12 -18 12
-25 0 -26 75 -130 137 -190 35 -35 90 -78 121 -96 50 -29 59 -39 73 -84 30
-92 65 -134 152 -183 56 -32 57 -32 58 -78 3 -147 -5 -270 -25 -377 -3 -16 -8
-46 -11 -65 -27 -175 -26 -170 -72 -199 -24 -15 -41 -30 -38 -34 3 -4 2 -5 -1
-2 -4 2 -16 -1 -27 -6 -11 -6 -34 -13 -51 -16 -31 -5 -66 -20 -76 -32 -8 -10
-96 -64 -175 -107 -38 -20 -89 -50 -111 -66 -51 -33 -185 -98 -356 -172 -279
-119 -463 -290 -573 -531 -69 -152 -90 -261 -90 -475 0 -195 12 -339 37 -437
l11 -43 2313 0 2313 0 -9 28 c-4 15 -21 63 -38 108 -27 71 -31 98 -38 235 -4
85 -7 160 -7 166 0 7 5 30 13 52 10 30 10 53 1 102 -6 35 -13 82 -16 104 -24
165 -56 285 -126 463 -66 168 -83 198 -154 255 -104 84 -355 193 -489 211 -17
3 -55 10 -85 15 -29 6 -91 11 -136 11 -70 0 -107 7 -231 45 -168 51 -219 62
-228 47 -4 -6 -30 -3 -73 9 -225 65 -212 58 -201 122 6 29 16 66 23 83 l13 31
113 5 c178 8 312 61 413 163 76 76 200 257 255 370 75 154 87 185 130 312 61
184 71 250 67 453 -2 96 -6 184 -9 195 -3 11 -8 47 -11 80 -4 33 -9 71 -11 85
-6 30 -11 71 -20 163 -6 53 -3 75 10 102 9 20 19 66 22 103 3 37 13 80 23 97
10 17 21 47 25 68 5 28 13 39 31 43 20 5 56 44 53 60 0 3 7 11 16 17 22 17 28
65 14 101 -8 17 -9 31 -3 33 61 22 52 89 -20 155 -39 35 -40 37 -23 56 42 46
21 102 -51 137 -36 18 -39 23 -37 56 2 26 -5 45 -22 68 -22 28 -73 66 -59 43
3 -5 -10 -2 -29 7 -20 9 -34 23 -35 34 0 10 -7 31 -14 46 -16 30 -80 91 -96
91 -5 0 -26 16 -45 36 -27 27 -43 35 -61 31 -19 -3 -24 0 -24 18 0 21 -28 55
-44 55 -4 0 -35 13 -69 29 -34 17 -74 32 -88 35 -15 3 -44 24 -66 45 -45 45
-73 53 -131 40 -33 -7 -50 -5 -89 12 -35 15 -64 20 -110 17 -54 -2 -65 0 -88
22 -21 20 -36 24 -91 24 -35 1 -68 -3 -72 -9 -12 -16 -54 -16 -72 0 -24 22
-73 25 -165 9z"/>
</g>
</svg>
